<svg xmlns="http://www.w3.org/2000/svg" viewBox="0 0 500 500"><g id="freepik--Floor--inject-4"><path d="M464.21,468.74c0,.14-95.92.26-214.2.26s-214.22-.12-214.22-.26,95.89-.26,214.22-.26S464.21,468.6,464.21,468.74Z" style="fill:#263238"></path></g><g id="freepik--plant-2--inject-4"><polygon points="396.19 441.33 400.31 468.39 424.23 468.39 429.78 441.72 396.19 441.33" style="fill:#FF8700"></polygon><path d="M426.13,459c0,.08-6.13.14-13.69.14s-13.69-.06-13.69-.14,6.13-.14,13.69-.14S426.13,458.9,426.13,459Z" style="fill:#fafafa"></path><path d="M426.23,457.65c0,.07-6.17.14-13.79.14s-13.78-.07-13.78-.14,6.17-.14,13.78-.14S426.23,457.57,426.23,457.65Z" style="fill:#fafafa"></path><path d="M426.18,456.14c0,.08-6.17.14-13.78.14s-13.79-.06-13.79-.14,6.17-.14,13.79-.14S426.18,456.07,426.18,456.14Z" style="fill:#fafafa"></path><path d="M402.75,467.15a23.12,23.12,0,0,1-.73-3.41,21.24,21.24,0,0,1-.46-3.45,20.41,20.41,0,0,1,.73,3.41A21.24,21.24,0,0,1,402.75,467.15Z" style="fill:#fafafa"></path><path d="M404.38,466.86a73.92,73.92,0,0,1-.45-6.65,27.12,27.12,0,0,1,.45,6.65Z" style="fill:#fafafa"></path><path d="M407.35,466.86a15.62,15.62,0,0,1-.63-3.41,16.55,16.55,0,0,1-.18-3.46,29.56,29.56,0,0,1,.46,3.43A34,34,0,0,1,407.35,466.86Z" style="fill:#fafafa"></path><path d="M409.43,467a16.74,16.74,0,0,1-.33-3.47,17.24,17.24,0,0,1,.1-3.48,30.93,30.93,0,0,1,.18,3.47A29.82,29.82,0,0,1,409.43,467Z" style="fill:#fafafa"></path><path d="M413.11,466.86a20.05,20.05,0,0,1-.25-3.28,19.27,19.27,0,0,1,0-3.3,38.79,38.79,0,0,1,.22,6.58Z" style="fill:#fafafa"></path><path d="M415.81,467a20.6,20.6,0,0,1-.12-3.4,20.87,20.87,0,0,1,.17-3.4,19.94,19.94,0,0,1,.11,3.4A21.63,21.63,0,0,1,415.81,467Z" style="fill:#fafafa"></path><path d="M418.33,466.65a43.59,43.59,0,0,1,.69-7.09,24.34,24.34,0,0,1-.21,3.56A22.93,22.93,0,0,1,418.33,466.65Z" style="fill:#fafafa"></path><path d="M421.59,466.29a11.66,11.66,0,0,1,.4-3,11.82,11.82,0,0,1,.89-2.92,27.64,27.64,0,0,1-.62,3C421.9,465,421.66,466.3,421.59,466.29Z" style="fill:#fafafa"></path><path d="M393.44,436V441a2,2,0,0,0,2,2h34.64a2,2,0,0,0,2-2V436Z" style="fill:#FF8700"></path><g style="opacity:0.4"><polygon points="396.14 443.33 396.43 444.94 428.4 447.22 429.21 443.33 396.14 443.33"></polygon></g><path d="M398.36,436.3s-13.47-15.53-12-16.09,13.47,8.05,13.47,8.05-10.29-23-8.23-24.7S404.53,424,404.53,424s-1.68-32.17,0-32.55,7.86,32.18,7.86,32.18,9.16-29.74,11.78-29.74-2.8,28.62-2.8,28.62,10.85-18.34,12.53-15.9-7.67,22.26-7.67,22.26,13.66-11.41,14.22-9.92-14.78,17.4-14.78,17.4Z" style="fill:#455a64"></path><path d="M396.48,412.92c.09,0,2.48,5.08,5.33,11.44s5.1,11.54,5,11.59-2.48-5.08-5.33-11.44S396.38,413,396.48,412.92Z" style="fill:#263238"></path><path d="M407.36,415.78c.1,0,.5,4.51.89,10.08s.62,10.1.51,10.11-.5-4.51-.88-10.08S407.26,415.79,407.36,415.78Z" style="fill:#263238"></path><path d="M422.37,401.37a1.88,1.88,0,0,1-.08.36l-.3,1-1.12,3.74c-.95,3.17-2.23,7.55-3.53,12.42s-2.38,9.31-3.13,12.53c-.37,1.57-.67,2.86-.89,3.81-.1.41-.19.76-.25,1s-.1.36-.12.36a2.52,2.52,0,0,1,0-.37c.05-.28.11-.63.19-1,.17-.91.43-2.22.78-3.84.68-3.23,1.72-7.69,3-12.56s2.62-9.26,3.64-12.4c.5-1.58.93-2.85,1.24-3.72.14-.4.26-.73.36-1A1.06,1.06,0,0,1,422.37,401.37Z" style="fill:#263238"></path><path d="M428.86,418c.08.06-2.55,4-5.87,8.76s-6.1,8.6-6.18,8.54,2.55-4,5.87-8.75S428.77,417.9,428.86,418Z" style="fill:#263238"></path><path d="M402.9,436a4.85,4.85,0,0,1-1.18-.84,32.35,32.35,0,0,1-2.56-2.37,31.11,31.11,0,0,1-2.3-2.62,4.86,4.86,0,0,1-.81-1.2c.08-.06,1.48,1.63,3.38,3.57S403,435.89,402.9,436Z" style="fill:#263238"></path><path d="M411.08,429.8a14.26,14.26,0,0,1,.48,3.21,14.53,14.53,0,0,1,.11,3.23,14.1,14.1,0,0,1-.48-3.2A14.62,14.62,0,0,1,411.08,429.8Z" style="fill:#263238"></path></g><g id="freepik--plant-1--inject-4"><path d="M102.12,440.05s-4.32-29.76-4-47.08,0-36.79,0-36.79h2s-1.35,34.37.12,55.09,5.34,28.78,5.34,28.78h-3.47" style="fill:#263238"></path><path d="M115,322.69A5.28,5.28,0,0,0,113.2,320c-1.26-.8-2.92-.47-4.34,0-6,2.13-11.37,13.37-13.8,19.28l8,27C117.5,352.9,120,335.33,115,322.69Z" style="fill:#455a64"></path><path d="M112.73,321.12a1.54,1.54,0,0,1-.11.35q-.16.39-.39,1c-.36.84-.85,2.08-1.44,3.61-1.17,3.06-2.68,7.34-4,12.16s-2.25,9.27-2.82,12.5c-.29,1.62-.5,2.93-.64,3.84-.07.42-.12.76-.17,1a1.52,1.52,0,0,1-.08.36,1.3,1.3,0,0,1,0-.37c0-.28.06-.62.1-1.05.1-.92.28-2.23.54-3.86A115,115,0,0,1,110.58,326c.61-1.52,1.14-2.74,1.53-3.58l.45-.95A1.71,1.71,0,0,1,112.73,321.12Z" style="fill:#263238"></path><path d="M99.5,372.77a24.41,24.41,0,0,1-12.33-20.5c-.29-6,1.55-11.86,3.63-17.47a2.24,2.24,0,0,1,.85-1.27,2.13,2.13,0,0,1,2,.32c5.45,3.1,8.76,9,10.51,15a30.35,30.35,0,0,1,1.24,12.37,20.56,20.56,0,0,1-5.94,11.51" style="fill:#455a64"></path><path d="M99.5,372.77a1.82,1.82,0,0,1,0-.37c0-.27,0-.61,0-1,0-.9,0-2.2-.11-3.8A102.56,102.56,0,0,0,98,355.11c-.83-4.83-1.84-9.15-2.59-12.27-.36-1.53-.66-2.79-.88-3.71-.1-.4-.17-.74-.23-1a1.56,1.56,0,0,1-.06-.35,1.38,1.38,0,0,1,.12.34c.08.26.17.59.29,1,.25.87.59,2.12,1,3.68.8,3.11,1.85,7.44,2.68,12.28a90.21,90.21,0,0,1,1.3,12.5c.05,1.61.05,2.91,0,3.81,0,.42,0,.76,0,1A1.34,1.34,0,0,1,99.5,372.77Z" style="fill:#263238"></path><g style="opacity:0.30000000000000004"><path d="M99.5,372.77a24.41,24.41,0,0,1-12.33-20.5c-.29-6,1.55-11.86,3.63-17.47a2.24,2.24,0,0,1,.85-1.27,2.13,2.13,0,0,1,2,.32c5.45,3.1,8.76,9,10.51,15a30.35,30.35,0,0,1,1.24,12.37,20.56,20.56,0,0,1-5.94,11.51"></path></g><path d="M108,418.3c7.39,1.62,13.46,6.83,20.59,9.36,4.71,1.68,10,2.27,13.8,5.56-.91-2.28-3-3.79-5.12-5.09a92.12,92.12,0,0,0-18.66-8.91c-3.35-1.15-7-2.12-10.4-1.17" style="fill:#455a64"></path><path d="M108.17,418.05a.94.94,0,0,1,.19-.06,5.12,5.12,0,0,1,.56-.15,10.85,10.85,0,0,1,2.22-.24,23.36,23.36,0,0,1,8,1.69A89.17,89.17,0,0,1,130.32,424c2,1,4.14,2.2,6.27,3.5a27.35,27.35,0,0,1,3.16,2.13,9.2,9.2,0,0,1,2.55,3l.22.49.34.76-.63-.56a18.43,18.43,0,0,0-6.66-3.41c-2.33-.74-4.64-1.28-6.78-2a41.82,41.82,0,0,1-5.86-2.62c-1.78-.94-3.4-1.86-4.89-2.68a49.64,49.64,0,0,0-7.26-3.44c-.9-.31-1.6-.54-2.08-.66l-.55-.15-.19-.07.2,0,.55.12c.5.1,1.21.31,2.12.6a46.48,46.48,0,0,1,7.33,3.34c1.51.81,3.13,1.72,4.91,2.64a41.25,41.25,0,0,0,5.83,2.57c2.12.74,4.43,1.27,6.78,2a18.53,18.53,0,0,1,6.79,3.48l-.29.2c-.07-.14-.13-.3-.21-.45a8.91,8.91,0,0,0-2.45-2.9,30.5,30.5,0,0,0-3.12-2.11c-2.11-1.3-4.21-2.46-6.23-3.5a93,93,0,0,0-11.12-4.8,24,24,0,0,0-7.91-1.79,12.82,12.82,0,0,0-2.21.17A5,5,0,0,1,108.17,418.05Z" style="fill:#263238"></path><path d="M97.29,424.88c-9.24-.15-19-8-28.18-8.49,9.63-3.11,23.42-.57,28.18,8.49" style="fill:#455a64"></path><path d="M100.9,402.7a30.08,30.08,0,0,1,14.78-1,88.49,88.49,0,0,1,14.43,3.92c-.47-3.21-3.07-5.62-5.51-7.76a39.43,39.43,0,0,0-5.79-4.45,13,13,0,0,0-7-2,11,11,0,0,0-7.67,3.87,12.73,12.73,0,0,0-3.29,7.38" style="fill:#455a64"></path><path d="M100.9,402.7s0-.06,0-.18,0-.31,0-.54a13,13,0,0,1,.45-2,13.4,13.4,0,0,1,4.31-6.26,11.12,11.12,0,0,1,4.8-2.23,11,11,0,0,1,6,.68,21.46,21.46,0,0,1,5.73,3.52c.9.73,1.79,1.51,2.7,2.3a31.51,31.51,0,0,1,2.63,2.55,9.94,9.94,0,0,1,2.68,5.09l0,.29-.28-.09a115.83,115.83,0,0,0-11.33-3.36,40.65,40.65,0,0,0-9.38-1.07,28.39,28.39,0,0,0-6.23.74c-.72.17-1.27.33-1.64.45l-.42.12q-.14,0-.15,0l.14-.06.41-.16c.36-.13.91-.31,1.63-.5a26.16,26.16,0,0,1,6.25-.86,39.65,39.65,0,0,1,9.45,1,109.37,109.37,0,0,1,11.39,3.33l-.24.19a9.54,9.54,0,0,0-2.59-4.9,29.39,29.39,0,0,0-2.61-2.51c-.9-.79-1.78-1.57-2.68-2.3a21.23,21.23,0,0,0-5.62-3.48,10.74,10.74,0,0,0-5.85-.7,10.89,10.89,0,0,0-4.7,2.14,13.6,13.6,0,0,0-2.89,3.18,12,12,0,0,0-1.44,2.92,12.68,12.68,0,0,0-.51,2A6,6,0,0,1,100.9,402.7Z" style="fill:#263238"></path><path d="M81.93,392.5c-5.82-5-14.63-4.49-22.28-4.31a181.67,181.67,0,0,1,34.56,21.53C94.52,404.31,89.28,398.77,81.93,392.5Z" style="fill:#455a64"></path><g style="opacity:0.30000000000000004"><path d="M81.93,392.5c-5.82-5-14.63-4.49-22.28-4.31a181.67,181.67,0,0,1,34.56,21.53C94.52,404.31,89.28,398.77,81.93,392.5Z"></path></g><path d="M103.52,385.64a65.09,65.09,0,0,1,9-5.2c3.06-1.4,5.92-3.61,8.88-5.21,3.84-2.08,7.16-5,10.68-7.54s7.39-4.9,11.7-5.59a23.15,23.15,0,0,0-10.65.62,68.58,68.58,0,0,0-10,3.9c-4.54,2-9.16,4.14-12.87,7.46s-7.06,6.59-6.67,11.56" style="fill:#455a64"></path><path d="M103.52,385.64l0-.25c0-.17,0-.42,0-.74a9.12,9.12,0,0,1,.46-2.8,12.19,12.19,0,0,1,2.24-3.89,38.61,38.61,0,0,1,4.2-4.2,32.7,32.7,0,0,1,6-4.06c2.27-1.25,4.8-2.39,7.45-3.58a66.86,66.86,0,0,1,8.5-3.35,24.8,24.8,0,0,1,9.73-1.11,15.46,15.46,0,0,1,1.76.27l1,.19-1,.17a23.32,23.32,0,0,0-8.66,3.52c-2.58,1.62-4.88,3.47-7.12,5.17a50.24,50.24,0,0,1-6.63,4.42c-2.18,1.19-4.08,2.52-5.91,3.6-.91.54-1.8,1-2.66,1.42s-1.67.78-2.42,1.17c-1.48.77-2.72,1.51-3.72,2.12l-2.3,1.44-.6.37-.21.12a.86.86,0,0,1,.19-.15l.58-.4c.51-.35,1.27-.86,2.26-1.5s2.23-1.38,3.71-2.18,3.26-1.51,5-2.63,3.7-2.43,5.89-3.64a51.31,51.31,0,0,0,6.58-4.43c2.23-1.7,4.53-3.56,7.13-5.2a23.67,23.67,0,0,1,8.8-3.59v.36c-.54-.1-1.13-.2-1.73-.26a25,25,0,0,0-9.59,1.09,68.78,68.78,0,0,0-8.47,3.32c-2.65,1.18-5.17,2.31-7.44,3.54a32.6,32.6,0,0,0-5.93,4,39.71,39.71,0,0,0-4.22,4.13,12.24,12.24,0,0,0-2.25,3.81A10.62,10.62,0,0,0,103.52,385.64Z" style="fill:#263238"></path><path d="M128.38,424.88a1.38,1.38,0,0,1-.3-.13l-.8-.42c-.7-.37-1.7-.92-3-1.55-.62-.33-1.31-.67-2.06-1s-1.55-.73-2.4-1.1a35.72,35.72,0,0,0-5.69-2,12.22,12.22,0,0,0-5.93-.15,17.33,17.33,0,0,0-2.51.75,12.42,12.42,0,0,0-2,1.05,12.71,12.71,0,0,0-2.55,2.1c-.54.58-.8.93-.82.91a1.18,1.18,0,0,1,.16-.27c.12-.18.31-.42.56-.72a12,12,0,0,1,2.52-2.22,13.08,13.08,0,0,1,2.05-1.1,17.36,17.36,0,0,1,2.55-.79,12.29,12.29,0,0,1,6.07.12,33.2,33.2,0,0,1,5.74,2c.86.38,1.66.75,2.4,1.13s1.43.72,2.05,1.07c1.25.66,2.23,1.24,2.91,1.64l.78.47Z" style="fill:#263238"></path><path d="M90.4,420.3a2.21,2.21,0,0,1,.58.17,12.31,12.31,0,0,1,1.5.65,18.28,18.28,0,0,1,7.73,7.42,14,14,0,0,1,.71,1.48,2.27,2.27,0,0,1,.19.57s-.4-.76-1.11-1.93a20.32,20.32,0,0,0-3.33-4.17,20.83,20.83,0,0,0-4.3-3.16C91.17,420.66,90.38,420.35,90.4,420.3Z" style="fill:#263238"></path><path d="M69.94,392a1.87,1.87,0,0,1,.4.12l1.11.39,1.75.65c.68.25,1.42.63,2.26,1a54.12,54.12,0,0,1,12,7.67,57.78,57.78,0,0,1,5.61,5.53,62.75,62.75,0,0,1,4,5.05c1,1.49,1.85,2.74,2.4,3.6l.63,1a1.62,1.62,0,0,1,.21.36,2.77,2.77,0,0,1-.26-.32c-.16-.22-.4-.54-.69-1-.58-.84-1.41-2.07-2.48-3.54s-2.43-3.17-4-5a63.68,63.68,0,0,0-5.6-5.48,55.93,55.93,0,0,0-11.92-7.7c-.83-.39-1.56-.77-2.23-1l-1.73-.7-1.08-.45A2.73,2.73,0,0,1,69.94,392Z" style="fill:#263238"></path><path d="M114.78,397.51a3.87,3.87,0,0,1-.74-.1l-.85-.16c-.33-.06-.72-.06-1.14-.1a11.48,11.48,0,0,0-9.24,3.39,13.22,13.22,0,0,0-1.86,2.3,19,19,0,0,0-1.27,2.43,2.34,2.34,0,0,1,.19-.72,10.32,10.32,0,0,1,.88-1.83,12.49,12.49,0,0,1,1.84-2.39,11.32,11.32,0,0,1,9.48-3.42c.43.06.82.08,1.15.16l.85.22A2.87,2.87,0,0,1,114.78,397.51Z" style="fill:#263238"></path><path d="M124.07,368.68a2.14,2.14,0,0,1-.35.22l-1,.56c-.89.48-2.18,1.2-3.75,2.12s-3.4,2.09-5.36,3.48a45,45,0,0,0-6,5,15.36,15.36,0,0,0-2.44,3.17c-.61,1.16-1.18,2.29-1.72,3.37a61,61,0,0,0-2.57,5.84,39.22,39.22,0,0,0-1.25,4.12c-.23,1-.32,1.55-.35,1.54a1.81,1.81,0,0,1,0-.41c0-.26.09-.66.19-1.16a29.32,29.32,0,0,1,1.16-4.17,55.23,55.23,0,0,1,2.51-5.9c.53-1.08,1.1-2.21,1.7-3.38a15.41,15.41,0,0,1,2.5-3.25,43.27,43.27,0,0,1,6-5c2-1.4,3.83-2.53,5.41-3.44s2.9-1.59,3.82-2l1.06-.51A2.07,2.07,0,0,1,124.07,368.68Z" style="fill:#263238"></path><path d="M98.14,396.67a4.17,4.17,0,0,1-.18-.78c-.11-.57-.24-1.28-.4-2.13a54.71,54.71,0,0,0-4.39-13.59l-.9-2a4.06,4.06,0,0,1-.3-.74,3.25,3.25,0,0,1,.41.69c.25.45.59,1.11,1,1.93a46,46,0,0,1,4.41,13.65c.14.91.25,1.64.3,2.15A2.85,2.85,0,0,1,98.14,396.67Z" style="fill:#263238"></path><path d="M97.48,375.64a25.2,25.2,0,0,0-3-10A33,33,0,0,0,72.14,349l20.67,30.81,2.67,5.5A15.84,15.84,0,0,0,97.48,375.64Z" style="fill:#455a64"></path><rect x="79.06" y="436.37" width="48.07" height="8.52" style="fill:#FF8700"></rect><polygon points="82.65 443.2 86.74 469.63 118.66 469.63 123.54 443.2 82.65 443.2" style="fill:#FF8700"></polygon><path d="M127.1,444.9c0,.09-10.84.17-24.21.17s-24.22-.08-24.22-.17,10.84-.17,24.22-.17S127.1,444.8,127.1,444.9Z" style="fill:#263238"></path></g><g id="freepik--speech-bubble-4--inject-4"><path d="M390,154.6a34.81,34.81,0,1,1-53,3.55,34.8,34.8,0,0,0-9.29-6.21,25.7,25.7,0,0,1,15.73-.45A34.81,34.81,0,0,1,390,154.6Z" style="fill:#fff"></path><path d="M390,154.6l-.7-.61c-.46-.41-1.1-1.05-2-1.81a36.86,36.86,0,0,0-8.78-5.29,28.31,28.31,0,0,0-3.3-1.18l-1.81-.53-1.93-.39a37.68,37.68,0,0,0-4.16-.55c-.72,0-1.46,0-2.21,0-.38,0-.75,0-1.14,0l-1.15.08c-.77.08-1.57.07-2.36.22l-2.41.4a37,37,0,0,0-4.9,1.42,35.6,35.6,0,0,0-9.61,5.35.25.25,0,0,1-.19,0,25.59,25.59,0,0,0-15.59.46l0-.43a34.85,34.85,0,0,1,9.36,6.24.26.26,0,0,1,0,.33,38.07,38.07,0,0,0-4.48,8.22,35.51,35.51,0,0,0-2.11,9.51A34.48,34.48,0,0,0,342.4,205a35.76,35.76,0,0,0,9.94,6c.9.31,1.77.7,2.69.94l2.73.72,2.77.45c.91.17,1.85.15,2.76.23A35.14,35.14,0,0,0,374,212.18a37,37,0,0,0,9.38-4.09c.7-.45,1.36-1,2-1.42l1-.71.92-.8c.6-.53,1.22-1,1.8-1.59l1.62-1.73c.26-.28.54-.56.79-.86l.7-.92c.46-.61.94-1.21,1.38-1.82l1.17-1.91.58-.94.48-1,.94-1.93c.27-.66.5-1.33.75-2a32.77,32.77,0,0,0,1.17-3.91,34.61,34.61,0,0,0,.31-14.27,33.74,33.74,0,0,0-3.64-10.19l-1-1.84c-.36-.56-.73-1.05-1.06-1.53l-.91-1.3c-.29-.39-.6-.71-.85-1l-1.16-1.37c-.26-.31-.38-.47-.38-.47s.15.14.42.44.68.76,1.2,1.33c.26.3.57.61.87,1l.94,1.29c.33.47.71,1,1.08,1.52l1.06,1.84a33.59,33.59,0,0,1,3.74,10.24,34.62,34.62,0,0,1-.23,14.4,33.5,33.5,0,0,1-1.17,4c-.25.66-.47,1.33-.74,2s-.63,1.3-.95,2l-.48,1-.58,1-1.19,1.94c-.44.62-.92,1.22-1.39,1.84l-.7.94c-.25.3-.53.58-.8.87l-1.63,1.76c-.59.55-1.21,1.07-1.82,1.61l-.93.81-1,.73c-.68.47-1.35,1-2.05,1.44a37.87,37.87,0,0,1-9.51,4.17,36,36,0,0,1-10.83,1.15c-.93-.08-1.88-.06-2.8-.23l-2.81-.46-2.78-.72c-.93-.25-1.81-.64-2.73-1a35.94,35.94,0,0,1-10.09-6.07A34.88,34.88,0,0,1,330,176a35.72,35.72,0,0,1,2.15-9.65,38.8,38.8,0,0,1,4.56-8.34l0,.33a34.59,34.59,0,0,0-9.23-6.17.24.24,0,0,1-.11-.31.21.21,0,0,1,.13-.13,26,26,0,0,1,15.87-.44l-.19,0a36.19,36.19,0,0,1,14.69-6.79l2.44-.39c.8-.15,1.61-.14,2.39-.21l1.16-.08c.39,0,.77,0,1.15,0,.76,0,1.51,0,2.24.06a37.94,37.94,0,0,1,4.18.58l1.95.4,1.82.55a29.69,29.69,0,0,1,3.31,1.21,35.92,35.92,0,0,1,8.77,5.42c.89.78,1.52,1.44,2,1.86S390,154.6,390,154.6Z" style="fill:#263238"></path><path d="M352.23,172.26a14.32,14.32,0,0,1,2.28-3.15l-1.17-3.42,5.08-3.13,2.53,2.57a14.47,14.47,0,0,1,3.84-.62l1.58-3.24,5.81,1.37,0,3.61a14.62,14.62,0,0,1,3.16,2.28l3.41-1.18,3.14,5.08L379.28,175a14.62,14.62,0,0,1,.63,3.85l3.24,1.58-1.38,5.81-3.6,0a14.65,14.65,0,0,1-2.28,3.15l1.17,3.42L372,195.88l-2.53-2.58a14.47,14.47,0,0,1-3.84.62L364,197.16l-5.81-1.37,0-3.61a14.68,14.68,0,0,1-3.16-2.27l-3.41,1.17L348.54,186l2.57-2.53a14.89,14.89,0,0,1-.62-3.84L347.25,178l1.37-5.81,3.61,0Zm7.2,4a6.41,6.41,0,1,0,6.06-3.74A6.42,6.42,0,0,0,359.43,176.29Z" style="fill:#455a64"></path></g><g id="freepik--speech-bubble-3--inject-4"><path d="M414,78.68A29.31,29.31,0,1,1,381,109a29,29,0,0,0-9.37.83,21.66,21.66,0,0,1,10.08-8.59A29.31,29.31,0,0,1,414,78.68Z" style="fill:#fff"></path><path d="M414,78.68s-.27,0-.78,0-1.28-.1-2.27-.12a30.78,30.78,0,0,0-8.55,1.17,25.58,25.58,0,0,0-2.78,1l-1.47.61-1.47.77a31.34,31.34,0,0,0-3,1.83c-.5.36-1,.75-1.48,1.14-.25.19-.51.38-.75.59l-.71.66a27.58,27.58,0,0,0-5.27,6.44,29.68,29.68,0,0,0-3.47,8.56.22.22,0,0,1-.13.15,21.55,21.55,0,0,0-10,8.52l-.26-.35a29.57,29.57,0,0,1,9.45-.84.24.24,0,0,1,.22.23,32,32,0,0,0,1.41,7.75,29.32,29.32,0,0,0,3.62,7.34,28.91,28.91,0,0,0,23,12.72,29.69,29.69,0,0,0,9.66-1.31c.76-.27,1.54-.47,2.26-.8l2.17-1,2-1.16c.69-.37,1.29-.87,1.94-1.3a29.75,29.75,0,0,0,6.41-6.36,31.51,31.51,0,0,0,4-7.63c.22-.66.39-1.33.58-2l.28-1,.18-1c.11-.66.25-1.33.34-2l.15-2c0-.33.06-.65.07-1l0-1c0-.65,0-1.29-.05-1.92s-.16-1.26-.24-1.87l-.11-.93-.21-.89c-.14-.6-.27-1.19-.4-1.77s-.37-1.13-.56-1.69a26.41,26.41,0,0,0-1.29-3.18,29,29,0,0,0-7.31-9.52,28.4,28.4,0,0,0-7.75-4.77l-1.65-.67c-.53-.17-1-.3-1.5-.44L417,79.3c-.4-.1-.76-.15-1.09-.22l-1.48-.28-.5-.12s.17,0,.51.06L416,79c.33.06.7.1,1.1.19l1.3.36,1.51.42,1.67.65a28.42,28.42,0,0,1,7.86,4.74,29,29,0,0,1,7.45,9.58,27,27,0,0,1,1.33,3.21c.19.57.39,1.13.57,1.71s.27,1.19.41,1.79l.22.91.12.94q.12.93.24,1.89l.07,1.95,0,1c0,.33,0,.66-.06,1l-.15,2c-.1.67-.23,1.34-.34,2l-.18,1-.28,1c-.2.67-.37,1.36-.59,2a31.58,31.58,0,0,1-4,7.76,30.09,30.09,0,0,1-6.51,6.48c-.66.44-1.27,1-2,1.33l-2.08,1.18-2.2,1c-.75.33-1.54.54-2.31.82a30.16,30.16,0,0,1-9.83,1.34,29.46,29.46,0,0,1-23.42-13,30,30,0,0,1-3.67-7.47,32.61,32.61,0,0,1-1.42-7.89l.23.24a28.89,28.89,0,0,0-9.29.81.24.24,0,0,1-.29-.17.23.23,0,0,1,0-.18,21.82,21.82,0,0,1,10.2-8.67l-.13.15a29.88,29.88,0,0,1,3.56-8.67A27.75,27.75,0,0,1,390.46,86l.73-.67c.25-.21.51-.4.76-.6.51-.38,1-.78,1.5-1.14a29.87,29.87,0,0,1,3.05-1.82L398,81l1.49-.6a23.4,23.4,0,0,1,2.82-1,30,30,0,0,1,8.61-1.06c1,0,1.76.15,2.28.19Z" style="fill:#263238"></path><circle cx="409.99" cy="107.76" r="18.3" transform="translate(296.8 516.29) rotate(-89.24)" style="fill:#FF8700"></circle><g style="opacity:0.1"><path d="M411.19,89.5a18.29,18.29,0,0,0-19.46,17.06S404.52,108,408,103,411.19,89.5,411.19,89.5Z" style="fill:#fff"></path></g><path d="M423.6,108.37a13.91,13.91,0,1,1-13-14.8A13.91,13.91,0,0,1,423.6,108.37Z" style="fill:#FF8700"></path><g style="opacity:0.2"><path d="M423.6,108.37a13.91,13.91,0,1,1-13-14.8A13.91,13.91,0,0,1,423.6,108.37Z"></path></g><path d="M424,109a13.73,13.73,0,1,1-12.8-14.6A13.72,13.72,0,0,1,424,109Z" style="fill:#FF8700"></path><g style="opacity:0.2"><path d="M424,109a13.73,13.73,0,1,1-12.8-14.6A13.72,13.72,0,0,1,424,109Z" style="fill:#fff"></path></g><path d="M410.88,106.92l.23-3.51h0A7.57,7.57,0,0,1,413,104a6,6,0,0,1,.84.61l.05-.11.63-1.22.14-.28-.58-.7-.31.12a6.37,6.37,0,0,0-2.49-.9l.12-1.93-.56-.52,0,.48-.82-.06-.13,2c-2.72.08-4.11,1.54-4.23,3.31-.16,2.41,1.87,3.18,3.77,3.77l-.23,3.47a6.65,6.65,0,0,1-3.39-1.54l-.89,1.7a7.63,7.63,0,0,0,4.15,1.72l-.09,1.45-.68,0,.65.51,1.42.09.13-1.94c2.74-.1,4.15-1.55,4.26-3.32C414.84,108.26,412.78,107.51,410.88,106.92Zm-1.4-.46c-1-.36-1.71-.79-1.65-1.63s.61-1.35,1.86-1.46Zm1.63-3Zm-.57,8.68.21-3.07c1,.36,1.76.81,1.7,1.66S411.82,112,410.54,112.09Z" style="fill:#FF8700"></path><g style="opacity:0.30000000000000004"><path d="M410.88,106.92l.23-3.51h0A7.57,7.57,0,0,1,413,104a6,6,0,0,1,.84.61l.05-.11.63-1.22.14-.28-.58-.7-.31.12a6.37,6.37,0,0,0-2.49-.9l.12-1.93-.56-.52,0,.48-.82-.06-.13,2c-2.72.08-4.11,1.54-4.23,3.31-.16,2.41,1.87,3.18,3.77,3.77l-.23,3.47a6.65,6.65,0,0,1-3.39-1.54l-.89,1.7a7.63,7.63,0,0,0,4.15,1.72l-.09,1.45-.68,0,.65.51,1.42.09.13-1.94c2.74-.1,4.15-1.55,4.26-3.32C414.84,108.26,412.78,107.51,410.88,106.92Zm-1.4-.46c-1-.36-1.71-.79-1.65-1.63s.61-1.35,1.86-1.46Zm1.63-3Zm-.57,8.68.21-3.07c1,.36,1.76.81,1.7,1.66S411.82,112,410.54,112.09Z"></path></g><path d="M409.86,113.47l-.13,2-1.42-.1.13-1.93a7.56,7.56,0,0,1-4.16-1.72l.89-1.7a6.74,6.74,0,0,0,3.39,1.55l.23-3.47c-1.9-.6-3.92-1.36-3.77-3.77.12-1.78,1.51-3.24,4.23-3.32l.13-2,1.43.09-.13,1.93a7.44,7.44,0,0,1,3.46,1.29l-.83,1.71a7.34,7.34,0,0,0-2.75-1.13l-.23,3.51c1.89.6,3.95,1.34,3.8,3.76C414,111.93,412.61,113.37,409.86,113.47Zm-.93-7.53.2-3.09c-1.25.11-1.81.7-1.86,1.47S407.94,105.58,408.93,105.94Zm3,4.23c.06-.85-.68-1.3-1.7-1.67l-.2,3.08C411.27,111.47,411.84,110.91,411.89,110.17Z" style="fill:#FF8700"></path><path d="M393.87,115.31a1.15,1.15,0,0,1-.07-.15l-.2-.43c-.08-.19-.18-.42-.27-.7s-.22-.58-.32-.94l-.16-.55c-.06-.2-.1-.4-.15-.61-.11-.42-.18-.88-.26-1.36a19.66,19.66,0,0,1-.19-3.16,18.68,18.68,0,0,1,.36-3.14c.1-.48.2-.93.33-1.35.06-.2.11-.41.17-.6l.19-.54c.12-.35.26-.66.37-.93s.22-.49.31-.68l.22-.42.08-.14s0,.06-.06.15l-.19.44a6.93,6.93,0,0,0-.29.68c-.1.28-.24.58-.34.93-.06.17-.12.36-.19.54s-.11.4-.17.6c-.12.42-.21.87-.31,1.34a20.93,20.93,0,0,0-.35,3.13,20.65,20.65,0,0,0,.19,3.13c.07.48.14.94.24,1.35.05.21.09.42.14.61l.15.56c.09.35.21.66.3.94s.18.51.25.7l.17.44C393.86,115.25,393.88,115.31,393.87,115.31Z" style="fill:#fff"></path><path d="M406.12,105.81a1.25,1.25,0,0,1-.38-.43,2.14,2.14,0,0,1,.26-2.59c.25-.26.45-.36.46-.34s-.17.14-.38.4a2.26,2.26,0,0,0-.51,1.2,2.4,2.4,0,0,0,.25,1.28C406,105.63,406.13,105.79,406.12,105.81Z" style="fill:#fff"></path><path d="M409.57,100.69s-.05-.26,0-.57.06-.57.1-.57.05.26,0,.58A1.42,1.42,0,0,1,409.57,100.69Z" style="fill:#fff"></path><path d="M411.91,93.29a2.05,2.05,0,0,1-.44,0c-.15,0-.32,0-.52-.06s-.44,0-.69-.06l-.84,0c-.3,0-.63,0-1,0a16.55,16.55,0,0,0-2.18.31,16.82,16.82,0,0,0-2.1.65c-.32.14-.62.25-.89.39s-.52.26-.74.38-.43.24-.6.34l-.45.28-.38.24a2.8,2.8,0,0,1,.35-.28c.12-.09.26-.19.44-.3s.36-.24.59-.37.47-.26.74-.39.57-.27.89-.4a15.12,15.12,0,0,1,2.12-.67,15.48,15.48,0,0,1,2.2-.31c.34,0,.66,0,1,0s.58,0,.84,0,.49,0,.69.07a4.46,4.46,0,0,1,.52.08A3.34,3.34,0,0,1,411.91,93.29Z" style="fill:#fff"></path><path d="M411.08,125.23l-.33.06a7.33,7.33,0,0,1-.92.1,13.31,13.31,0,0,1-3-.16,12.91,12.91,0,0,1-2.92-.85c-.36-.15-.64-.29-.83-.39s-.3-.17-.29-.18l.31.13c.2.09.48.21.84.35a14.5,14.5,0,0,0,5.91,1c.39,0,.7,0,.92-.05A1.26,1.26,0,0,1,411.08,125.23Z" style="fill:#fff"></path></g><g id="freepik--speech-bubble-2--inject-4"><path d="M365.3,86.59a41.8,41.8,0,1,0-60.16,21.31,41.35,41.35,0,0,1-7.29,11.27,30.89,30.89,0,0,0,17.56-7A41.81,41.81,0,0,0,365.3,86.59Z" style="fill:#fff"></path><path d="M365.3,86.59s-.13.36-.41,1-.68,1.7-1.29,3a43,43,0,0,1-7.1,10.13,36,36,0,0,1-3.07,2.92l-1.75,1.46-1.95,1.37a44.15,44.15,0,0,1-4.34,2.62c-.79.39-1.61.74-2.44,1.13-.41.18-.83.39-1.25.56l-1.33.46c-.89.29-1.77.69-2.72.91l-2.88.72a44.41,44.41,0,0,1-6.13.8,42.78,42.78,0,0,1-13.28-1.3l.19,0a31.16,31.16,0,0,1-17.68,7.05.24.24,0,0,1-.25-.22.22.22,0,0,1,.06-.17,41.42,41.42,0,0,0,7.24-11.21l.1.31a45.56,45.56,0,0,1-9-7,42.68,42.68,0,0,1-7-9.59,41.91,41.91,0,0,1-4.71-24.08,41.47,41.47,0,0,1,4-14A43.19,43.19,0,0,1,296.6,42c.86-.78,1.65-1.64,2.55-2.35l2.72-2.11,2.87-1.84a11.85,11.85,0,0,1,1.48-.82l1.5-.77a43.19,43.19,0,0,1,12.48-3.88,45,45,0,0,1,12.44.07c1,.17,2,.41,2.95.61l1.46.32,1.41.46c.93.31,1.86.58,2.77.91l2.63,1.15c.43.2.88.37,1.29.59l1.23.69c.81.46,1.62.91,2.41,1.38L351,37.93l1.09.77,1,.87,2,1.72c.61.6,1.18,1.24,1.77,1.85a38.33,38.33,0,0,1,3.16,3.8,41.52,41.52,0,0,1,7.12,15.76,40.2,40.2,0,0,1,.75,13c-.1.9-.2,1.74-.29,2.54s-.33,1.51-.47,2.18-.29,1.3-.41,1.88-.34,1.06-.48,1.51l-.69,2c-.15.46-.25.69-.25.69s.06-.24.2-.7.36-1.17.64-2.06c.13-.45.32-1,.45-1.52l.39-1.87c.13-.68.31-1.4.44-2.18s.17-1.64.27-2.53a40.86,40.86,0,0,0-.83-13,41.42,41.42,0,0,0-7.13-15.6,36.7,36.7,0,0,0-3.15-3.76c-.59-.6-1.15-1.23-1.76-1.83l-2-1.69-1-.86-1.08-.76-2.21-1.55c-.78-.47-1.58-.9-2.39-1.36L345,34.67c-.41-.21-.85-.38-1.28-.57L341.07,33c-.9-.32-1.82-.59-2.74-.9l-1.4-.44-1.44-.32c-1-.19-1.93-.43-2.92-.59a44.41,44.41,0,0,0-12.3-.05,42.36,42.36,0,0,0-12.34,3.85l-1.48.76a12.15,12.15,0,0,0-1.45.81l-2.84,1.82L299.48,40c-.9.71-1.67,1.55-2.52,2.33a42.7,42.7,0,0,0-8.12,11.34,41.39,41.39,0,0,0,.7,37.6,42.43,42.43,0,0,0,6.87,9.48,44.91,44.91,0,0,0,8.86,7,.24.24,0,0,1,.1.31A42.12,42.12,0,0,1,298,119.33l-.19-.4A30.81,30.81,0,0,0,315.28,112a.19.19,0,0,1,.19,0,42.54,42.54,0,0,0,13.14,1.32,43.86,43.86,0,0,0,6.09-.77l2.85-.71c.94-.21,1.82-.6,2.71-.88l1.31-.46c.43-.17.84-.37,1.25-.55.82-.38,1.64-.72,2.42-1.11a43.63,43.63,0,0,0,4.32-2.58l1.95-1.34,1.74-1.45a34.44,34.44,0,0,0,3.08-2.88,43.86,43.86,0,0,0,7.15-10c.64-1.27,1-2.29,1.35-3S365.3,86.59,365.3,86.59Z" style="fill:#263238"></path><path d="M345.87,65.38c0-.2,0-.4-.07-.59s-.06-.42-.09-.63c0,.21.07.42.09.63S345.85,65.18,345.87,65.38Z" style="fill:#f5f5f5"></path><path d="M344.28,67.84a10.47,10.47,0,0,1-.33-1.22.78.78,0,0,0-.37-.55,2,2,0,0,0-.44-.1c-.52-.16-.66-.88-1.15-1.11a1.71,1.71,0,0,0-.49-.1,2.65,2.65,0,0,1-1.76-.82,2.83,2.83,0,0,0-.4-.5.49.49,0,0,0-.6-.06l.41.83a2.22,2.22,0,0,0,.47.69.72.72,0,0,0,.77.17.51.51,0,0,1,.26-.09.25.25,0,0,1,.17.11,1.14,1.14,0,0,1-.11,1.46,3.34,3.34,0,0,1-1.36.81,1.07,1.07,0,0,1-.55.11c-.35-.07-.53-.44-.63-.78a6.88,6.88,0,0,0-.8-2.18,2.72,2.72,0,0,1-.41-.61,3.73,3.73,0,0,0-.23-.76c-.15-.23-.48-.36-.5-.64a.49.49,0,0,1,.32-.45c.18-.09.38-.11.56-.19s.15-.08.16-.16-.16-.16-.21-.27.08-.23.14-.35c.11-.28-.17-.55-.45-.66s-.6-.19-.73-.46a1.67,1.67,0,0,1-.09-.4.85.85,0,0,0-.65-.71.56.56,0,0,0-.66.58,2,2,0,0,0,.25.5c.07.18.05.43-.13.49s-.57-.45-.81-.26l.3,1c-.39.2-.85-.15-1-.55s-.17-.86-.36-1.24-.72-.67-1.06-.4c0,.49.64.69.93,1.09a.68.68,0,0,1-.13,1c-.31.18-.79-.14-.68-.48a1,1,0,0,0,.15-.34c0-.15-.12-.28-.24-.38l-.55-.46a1.12,1.12,0,0,0-.4-.25c-.38-.12-.77.2-1,.54a5,5,0,0,1-.6,1,1.09,1.09,0,0,1-1.54,0,.92.92,0,0,1,.37-1.42c.21-.05.48-.05.59-.23s-.36-.76-.17-1.09.54-.14.82-.22.44-.37.61-.62.42-.48.71-.42a.81.81,0,0,1,0-.51.3.3,0,0,1,.42-.15.51.51,0,0,0,.28.67,1.44,1.44,0,0,0,.8.06c.28,0,.62-.13.64-.4a1.2,1.2,0,0,1,0-.27c.12-.33.72.12.95-.14s0-.38-.2-.42a1.76,1.76,0,0,0-.56,0c-.19,0-.42-.1-.43-.28s.2-.32.22-.51-.49-.39-.68-.14a1.19,1.19,0,0,0-.06.91,1,1,0,0,1-.14.89c-.1.15-.35.07-.44-.08a1.53,1.53,0,0,1-.08-.52.45.45,0,0,0-.26-.43,1.17,1.17,0,0,0-.37,0c-.48.06-.82-.56-.67-1a1.92,1.92,0,0,1,1-1,1.08,1.08,0,0,1,1-.16c.15.08.25.22.39.3a1.63,1.63,0,0,0,.83.1,1.9,1.9,0,0,1,1.2.47c.13.11.25.3.15.44s-.41.17-.36.34a.6.6,0,0,0,.76-.48.49.49,0,0,1,.29.41.89.89,0,0,1,1.32.11,1.43,1.43,0,0,0,.24.31c.11.07.31,0,.32-.1a.25.25,0,0,0,0-.12c-.07-.19-.14-.37-.2-.56.26-.14.56.08.74.31.65.87,1.11.35,2,.49a1.88,1.88,0,0,1,1.24,1c1.07,1.48,2.48,2.69,3.46,4.24.1.16.2.32.29.49a.69.69,0,0,1-.05-.13A16.75,16.75,0,0,0,343.39,58l-.36-.57-.24-.35c-.11-.15-.21-.3-.32-.44l-.26-.34L342,56l-.22-.26-.23-.27-.08-.08c-.08-.09-.16-.19-.25-.28l0,0-.08-.07-.21-.23-.37-.36-.32-.3-.28-.25-.29-.25-.36-.29h0c-.34-.27-.68-.52-1-.76l-.26-.18-.27-.17-.27-.17-.28-.16L337,51.8l-.11-.06c-.16-.09-.32-.18-.49-.26l-.24-.12-.31-.15-.05,0-.29-.13-.4-.18-.47-.18-.53-.19-.54-.18-.54-.15c-.37-.1-.73-.18-1.1-.26h0l-.43-.08h0l-.19,0-.8-.11h-.1l-.24,0-.53,0-.56,0-.6,0c-.52,0-1,0-1.55.07l-.36,0-.37,0-.37.05-.38.07-.32,0-.77.17-.36.09-.35.1c-.2,0-.39.12-.58.18h0l-.46.15h0c-.16.06-.32.11-.47.18h0l-.42.18-.51.22-.43.21-.45.22h0l-.42.24-.43.25h0l-.39.24-.15.1-.41.27-.48.36c-.15.1-.28.21-.42.32a17.1,17.1,0,0,0-2.18,2.07c-.24.26-.46.53-.68.8s-.36.47-.53.71-.3.43-.44.65c.14-.22.29-.44.44-.65h.14a2,2,0,0,0,.73-.12,4.44,4.44,0,0,0,.55-.42c.48-.35,1.27-.41,1.4-1,.05-.19,0-.4.07-.59.13-.35.6-.4,1-.39a.45.45,0,0,1,.42.16.4.4,0,0,1,0,.32,3,3,0,0,1-1.28,1.57c-.48.29-1.11.52-1.24,1.07.06.18.4.17.43.37s-.18.23-.25.37.13.45.36.44a1.06,1.06,0,0,0,.6-.33,3.78,3.78,0,0,0,1.21-1.65,1.52,1.52,0,0,1,.33-.78.55.55,0,0,1,.83.27c.22-.12.56-.22.67,0a1.19,1.19,0,0,1,.05.26c.07.36.56.52.61.88s-.47.63-.89.69l-1.12.18a.93.93,0,0,0-.47.15.36.36,0,0,0-.14.43,1,1,0,0,0,.2.2.6.6,0,0,1-.39,1c-.15,0-.29-.05-.44-.06-.45,0-.8.38-1,.77a3,3,0,0,1-.73,1.1c-.57.43-1.55.33-1.83,1a1.57,1.57,0,0,0,0,.86,1.18,1.18,0,0,1-.1.83c-.17.24-.6.29-.72,0a.66.66,0,0,1,0-.37c.06-.41.13-.82.19-1.23a1.21,1.21,0,0,0-.09-.9A.82.82,0,0,0,312,62a2,2,0,0,0-.55,1.14,4.64,4.64,0,0,1-.32,1.1h0c-.06.35-.1.7-.14,1s-.06.72-.07,1.09l.14-.14c.17-.18.53-.94.84-.57a.29.29,0,0,1,0,.35c-.1.12-.29.15-.37.29s0,.36.19.46a1.81,1.81,0,0,1,.44.33c.2.29,0,.74.2,1s.53.27.84.31l.11,0a1.39,1.39,0,0,1,1.2-1.3,3.84,3.84,0,0,1,3.31,1.56c.72,1,1.06,2.34,2.17,2.82.79.35,1.91.23,2.3,1s-.26,1.47-.35,2.24a7.93,7.93,0,0,0,.15,1.53,1.31,1.31,0,0,1-.58,1.31c-.26.12-.58.11-.79.3-.37.35-.07,1.07-.44,1.42a1.63,1.63,0,0,1-.47.25c-.83.42-.8,1.64-.42,2.49a.36.36,0,0,1,0,.09,17.54,17.54,0,0,0,9,2.48,17.46,17.46,0,0,0,8.24-2h0a16.3,16.3,0,0,0,1.55-.93,16.64,16.64,0,0,0,2.18-1.74,14.56,14.56,0,0,0,1.33-1.39q.45-.51.84-1l.4-.56a18.12,18.12,0,0,0,2.18-4.49,17.4,17.4,0,0,0,.67-3c.05-.39.09-.79.12-1.19a1,1,0,0,1-.7.31A1.14,1.14,0,0,1,344.28,67.84Z" style="fill:#f5f5f5"></path><path d="M313.16,71.73a13,13,0,0,1,.12-1.51c0-.35,0-.72,0-1.07a5.58,5.58,0,0,1-.9-.13.25.25,0,0,1-.16-.08.43.43,0,0,1,0-.19c0-.39-.4-.65-.74-.85a3.89,3.89,0,0,0-.54-.27v.12A17.42,17.42,0,0,0,312,73.32a16.62,16.62,0,0,0,1.07,2.3c.17.32.36.63.56.94s.5.75.77,1.11.53.68.82,1A16.49,16.49,0,0,0,316.46,80c.38.36.79.71,1.2,1a28.57,28.57,0,0,0-3.49-7.38A4.14,4.14,0,0,1,313.16,71.73Z" style="fill:#e0e0e0"></path><path d="M310.88,66.8c0,.11,0,.21,0,.32v0C310.87,67,310.87,66.91,310.88,66.8Z" style="fill:#e0e0e0"></path><g style="opacity:0.6000000000000001"><path d="M318.65,81.69l.44.29.32.2-.32-.2Z" style="fill:#e0e0e0"></path></g><path d="M333.51,80.59a1.84,1.84,0,0,1-.33,0,1.06,1.06,0,0,1-.77-.59,2,2,0,0,1-.14-.76,3.07,3.07,0,0,0,0-.53,2.76,2.76,0,0,0-.42-.84,3.59,3.59,0,0,1-.35-.64,3.79,3.79,0,0,1-.19-1.33v-.11a10.94,10.94,0,0,0-2.49-7.25A1.64,1.64,0,0,0,328,68a1,1,0,0,0-1,.33c-.05.08-.1.16-.14.24a1.14,1.14,0,0,1-.26.36.69.69,0,0,1-.61.17,1.1,1.1,0,0,1-.77-.53,2.62,2.62,0,0,1-.19-1.55l.16-1.91a1.73,1.73,0,0,1,.3-1,1.68,1.68,0,0,1,.71-.41,2.14,2.14,0,0,0,.55-.26,2,2,0,0,0,.59-1,3.55,3.55,0,0,1,.28-.63,1.17,1.17,0,0,1,1.1-.54.5.5,0,0,1,.4.27,1.19,1.19,0,0,1,.71-.66c.64-.18,1.41.32,2.16.81s1.33.86,1.83.77l.39-.1a2.06,2.06,0,0,1,.82-.11c.74.1,1.11.9,1.36,1.59l1.2,3.35a1.15,1.15,0,0,0,1.24,1.1,1.86,1.86,0,0,1,.52.07.85.85,0,0,1,.55.68,2,2,0,0,1-.65,1.68h0a6,6,0,0,1-.7.52,3,3,0,0,0-1.27,1.29,3,3,0,0,0-.15,1,2.28,2.28,0,0,1-.69,1.81,3.52,3.52,0,0,0-1,2.43,2.51,2.51,0,0,1,0,.27,3.43,3.43,0,0,1-.95,2.17A1.61,1.61,0,0,1,333.51,80.59Z" style="fill:#e0e0e0"></path><g style="opacity:0.6000000000000001"><path d="M310.89,66.39h0a.31.31,0,0,0,0,.1v0A.31.31,0,0,1,310.89,66.39Z" style="fill:#e0e0e0"></path></g><g style="opacity:0.6000000000000001"><path d="M310.87,67.38a2.09,2.09,0,0,1,0,.25h0A2.09,2.09,0,0,0,310.87,67.38Z" style="fill:#e0e0e0"></path></g><path d="M313.29,68.47l-.11,0c-.31,0-.67,0-.84-.31s0-.74-.2-1a1.81,1.81,0,0,0-.44-.33c-.15-.1-.28-.3-.19-.46s.27-.17.37-.29a.29.29,0,0,0,0-.35c-.31-.37-.67.39-.84.57l-.14.14h0a.31.31,0,0,0,0,.1v.31c0,.11,0,.21,0,.32v.26a2.09,2.09,0,0,1,0,.25,3.89,3.89,0,0,1,.54.27c.34.2.72.46.74.85a.43.43,0,0,0,0,.19.25.25,0,0,0,.16.08,5.58,5.58,0,0,0,.9.13" style="fill:#e0e0e0"></path><path d="M313.26,69.15c0,.35,0,.72,0,1.07a13,13,0,0,0-.12,1.51,4.14,4.14,0,0,0,1,1.87A28.57,28.57,0,0,1,317.66,81h0l.54.41.44.3.44.29.32.2a.36.36,0,0,0,0-.09c-.38-.85-.41-2.07.42-2.49a1.63,1.63,0,0,0,.47-.25c.37-.35.07-1.07.44-1.42.21-.19.53-.18.79-.3a1.31,1.31,0,0,0,.58-1.31,7.93,7.93,0,0,1-.15-1.53c.09-.77.69-1.55.35-2.24s-1.51-.65-2.3-1c-1.11-.48-1.45-1.85-2.17-2.82a3.84,3.84,0,0,0-3.31-1.56,1.39,1.39,0,0,0-1.2,1.3" style="fill:#e0e0e0"></path><path d="M312,62a.82.82,0,0,1,1.15,0,1.21,1.21,0,0,1,.09.9c-.06.41-.13.82-.19,1.23a.66.66,0,0,0,0,.37c.12.27.55.22.72,0a1.18,1.18,0,0,0,.1-.83,1.57,1.57,0,0,1,0-.86c.28-.66,1.26-.56,1.83-1a3,3,0,0,0,.73-1.1c.21-.39.56-.79,1-.77.15,0,.29.06.44.06a.6.6,0,0,0,.39-1,1,1,0,0,1-.2-.2.36.36,0,0,1,.14-.43.93.93,0,0,1,.47-.15l1.12-.18c.42-.06.95-.28.89-.69s-.54-.52-.61-.88a1.19,1.19,0,0,0-.05-.26c-.11-.23-.45-.13-.67,0a.55.55,0,0,0-.83-.27,1.52,1.52,0,0,0-.33.78A3.78,3.78,0,0,1,317,58.42a1.06,1.06,0,0,1-.6.33c-.23,0-.47-.24-.36-.44s.27-.22.25-.37-.37-.19-.43-.37c.13-.55.76-.78,1.24-1.07a3,3,0,0,0,1.28-1.57.4.4,0,0,0,0-.32.45.45,0,0,0-.42-.16c-.37,0-.84,0-1,.39-.08.19,0,.4-.07.59-.13.58-.92.64-1.4,1a4.44,4.44,0,0,1-.55.42,2,2,0,0,1-.73.12h-.14c-.15.21-.3.43-.44.65s-.28.44-.41.67a17.54,17.54,0,0,0-1.52,3.39c-.14.42-.26.84-.36,1.27s-.19.86-.27,1.3a4.64,4.64,0,0,0,.32-1.1A2,2,0,0,1,312,62Z" style="fill:#e0e0e0"></path><path d="M326.69,53.87c.17-.22.12-.53.23-.78.17-.42.73-.57.92-1,.08-.16.09-.35.22-.47s.27-.12.39-.21a.53.53,0,0,0-.13-.82c-.68-.44-1.95.07-2.55.5a4,4,0,0,1-2.53,1.15,1.93,1.93,0,0,0-.83,0c-.26.1-.42.49-.2.66s.31.06.45.13a.57.57,0,0,1,.16.76c-.13.26-.36.45-.51.7a1.26,1.26,0,0,0-.19.8.71.71,0,0,0,.24.52c.31.25.8,0,1.06-.27a4.33,4.33,0,0,1,.8-.9,2,2,0,0,1,.57-.2l1.33-.32A1,1,0,0,0,326.69,53.87Z" style="fill:#e0e0e0"></path><g style="opacity:0.6000000000000001"><path d="M346,66.88c0-.26,0-.51,0-.76,0,.25,0,.5,0,.76a1.93,1.93,0,0,1,0,.24c0,.39,0,.77,0,1.15,0-.38,0-.76,0-1.15A1.93,1.93,0,0,0,346,66.88Z" style="fill:#f5f5f5"></path></g><g style="opacity:0.6000000000000001"><path d="M344.86,61c.08.22.16.45.23.67-.07-.22-.15-.45-.23-.67Z" style="fill:#f5f5f5"></path></g><path d="M346,66.88c0-.26,0-.51,0-.76s0-.49-.06-.74,0-.4-.07-.59-.06-.42-.09-.63a16.47,16.47,0,0,0-.41-1.82c-.07-.23-.13-.45-.21-.68s-.15-.45-.23-.67h0c-.09-.17-.19-.33-.29-.49-1-1.55-2.39-2.76-3.46-4.24a1.88,1.88,0,0,0-1.24-1c-.92-.14-1.38.38-2-.49-.18-.23-.48-.45-.74-.31.06.19.13.37.2.56a.25.25,0,0,1,0,.12c0,.14-.21.17-.32.1a1.43,1.43,0,0,1-.24-.31.89.89,0,0,0-1.32-.11.49.49,0,0,0-.29-.41.6.6,0,0,1-.76.48c-.05-.17.25-.2.36-.34s0-.33-.15-.44a1.9,1.9,0,0,0-1.2-.47,1.63,1.63,0,0,1-.83-.1c-.14-.08-.24-.22-.39-.3a1.08,1.08,0,0,0-1,.16,1.92,1.92,0,0,0-1,1c-.15.46.19,1.08.67,1a1.17,1.17,0,0,1,.37,0,.45.45,0,0,1,.26.43,1.53,1.53,0,0,0,.08.52c.09.15.34.23.44.08a1,1,0,0,0,.14-.89,1.19,1.19,0,0,1,.06-.91c.19-.25.72-.17.68.14s-.23.32-.22.51.24.28.43.28a1.76,1.76,0,0,1,.56,0c.18,0,.33.28.2.42s-.83-.19-.95.14a1.2,1.2,0,0,0,0,.27c0,.27-.36.37-.64.4a1.44,1.44,0,0,1-.8-.06.51.51,0,0,1-.28-.67.3.3,0,0,0-.42.15.81.81,0,0,0,0,.51c-.29-.06-.55.18-.71.42s-.33.53-.61.62-.67,0-.82.22.36.76.17,1.09-.38.18-.59.23a.92.92,0,0,0-.37,1.42,1.09,1.09,0,0,0,1.54,0,5,5,0,0,0,.6-1c.2-.34.59-.66,1-.54a1.12,1.12,0,0,1,.4.25l.55.46c.12.1.25.23.24.38a1,1,0,0,1-.15.34c-.11.34.37.66.68.48a.68.68,0,0,0,.13-1c-.29-.4-.94-.6-.93-1.09.34-.27.86,0,1.06.4s.2.84.36,1.24.62.75,1,.55l-.3-1c.24-.19.52.35.81.26s.2-.31.13-.49a2,2,0,0,1-.25-.5.56.56,0,0,1,.66-.58.85.85,0,0,1,.65.71,1.67,1.67,0,0,0,.09.4c.13.27.46.35.73.46s.56.38.45.66c-.06.12-.18.23-.14.35s.21.16.21.27-.09.13-.16.16-.38.1-.56.19a.49.49,0,0,0-.32.45c0,.28.35.41.5.64a3.73,3.73,0,0,1,.23.76,2.72,2.72,0,0,0,.41.61,6.88,6.88,0,0,1,.8,2.18c.1.34.28.71.63.78a1.07,1.07,0,0,0,.55-.11,3.34,3.34,0,0,0,1.36-.81,1.14,1.14,0,0,0,.11-1.46.25.25,0,0,0-.17-.11.51.51,0,0,0-.26.09.72.72,0,0,1-.77-.17,2.22,2.22,0,0,1-.47-.69l-.41-.83a.49.49,0,0,1,.6.06,2.83,2.83,0,0,1,.4.5,2.65,2.65,0,0,0,1.76.82,1.71,1.71,0,0,1,.49.1c.49.23.63,1,1.15,1.11a2,2,0,0,1,.44.1.78.78,0,0,1,.37.55,10.47,10.47,0,0,0,.33,1.22,1.14,1.14,0,0,0,.94.75,1,1,0,0,0,.7-.31h0c0-.38,0-.76,0-1.15A1.93,1.93,0,0,0,346,66.88Z" style="fill:#e0e0e0"></path><path d="M338.85,74.16c-.26,0-.31.21-.46.4s-.45.5-.61.75c-.29.42,0,1.08-.41,1.44-.07.07-.17.12-.24.2a.44.44,0,0,0,.09.61.59.59,0,0,0,.65,0,1,1,0,0,0,.4-.55.9.9,0,0,1,.21-.45c.21-.18.54,0,.83-.08C340.51,76.32,340,73.93,338.85,74.16Z" style="fill:#e0e0e0"></path><path d="M346,67.09a27.11,27.11,0,0,0-.65-4.25,16.45,16.45,0,0,0-1.95-4.61,17.46,17.46,0,0,0-4.43-4.91,17.24,17.24,0,0,0-16.35-2.44,16.12,16.12,0,0,0-4.37,2.35,19,19,0,0,0-1.95,1.66,20.41,20.41,0,0,0-1.69,2,17.17,17.17,0,0,0,0,20.38,19.2,19.2,0,0,0,1.69,2A20.48,20.48,0,0,0,318.21,81a16.4,16.4,0,0,0,4.37,2.35A17.35,17.35,0,0,0,343.36,76a16.57,16.57,0,0,0,1.95-4.61,27.11,27.11,0,0,0,.65-4.25,1.16,1.16,0,0,1,0,.28c0,.22,0,.49,0,.84a8,8,0,0,1-.11,1.35,12.56,12.56,0,0,1-.33,1.83,16.68,16.68,0,0,1-1.9,4.71,17.68,17.68,0,0,1-11.88,8.39,17.69,17.69,0,0,1-9.32-.74,16.68,16.68,0,0,1-4.49-2.4,21.75,21.75,0,0,1-2-1.71,19.13,19.13,0,0,1-1.74-2.06,17.65,17.65,0,0,1,0-21,20.23,20.23,0,0,1,1.74-2.05,19,19,0,0,1,2-1.71,16.68,16.68,0,0,1,4.49-2.4,17.69,17.69,0,0,1,9.32-.74,17.6,17.6,0,0,1,11.88,8.39,16.57,16.57,0,0,1,1.9,4.71,12.1,12.1,0,0,1,.33,1.83A7.92,7.92,0,0,1,346,66c0,.34,0,.62,0,.83A1.29,1.29,0,0,1,346,67.09Z" style="fill:#263238"></path><path d="M322.7,84.61s5.77,2.84,8.13,3.58,6.83-2.09,2.34-4.37c-2.13-1.08-9.88-4.85-12.09-5.3S310,80.6,310,80.6V92.87L315.54,91s9,4.4,12,4.59S346.72,86.81,347,84.11a.25.25,0,0,0,0-.08,2.86,2.86,0,0,0-4.21-2.71L335,85.54" style="fill:#FF8700"></path><path d="M335,85.54a1,1,0,0,1,.22-.15l.65-.38,2.55-1.43,4.06-2.25a3.07,3.07,0,0,1,2.91-.23,3,3,0,0,1,1.78,2.74,1.59,1.59,0,0,1-.25.91,5.1,5.1,0,0,1-.57.73A13.85,13.85,0,0,1,345,86.74c-1,.79-2.05,1.54-3.19,2.29a78.33,78.33,0,0,1-7.53,4.3A43.7,43.7,0,0,1,330,95.25a7.86,7.86,0,0,1-2.45.58,12,12,0,0,1-2.47-.57,81.53,81.53,0,0,1-9.6-4l.2,0-4.28,1.44-1.28.43a.25.25,0,0,1-.33-.16.25.25,0,0,1,0-.08V80.6a.26.26,0,0,1,.19-.24,81.91,81.91,0,0,1,8.51-1.94,14.75,14.75,0,0,1,2.1-.18,6.5,6.5,0,0,1,2,.5c1.26.47,2.45,1,3.6,1.51,2.31,1,4.45,2.07,6.43,3.07a4.84,4.84,0,0,1,2.54,2,1.62,1.62,0,0,1-.19,1.57,3.18,3.18,0,0,1-1.14,1,4.19,4.19,0,0,1-2.65.5,14.23,14.23,0,0,1-2.24-.8c-1.35-.58-2.48-1.11-3.4-1.55l-2.1-1-.53-.29a.6.6,0,0,1-.18-.11l.2.07.55.25,2.13,1c.93.41,2.08.93,3.43,1.48a14.8,14.8,0,0,0,2.19.75,4,4,0,0,0,2.45-.5,3,3,0,0,0,1-.87,1.32,1.32,0,0,0,.14-1.26,4.55,4.55,0,0,0-2.38-1.83c-2-1-4.13-2-6.44-3-1.15-.5-2.34-1-3.58-1.47a5.82,5.82,0,0,0-1.88-.46,14.29,14.29,0,0,0-2,.18,79.6,79.6,0,0,0-8.44,2l.18-.25c0,3.89,0,8,0,12.27l-.35-.25,1.28-.43,4.28-1.44a.23.23,0,0,1,.2,0,82.47,82.47,0,0,0,9.52,4,11.25,11.25,0,0,0,2.35.55,7.29,7.29,0,0,0,2.26-.54,42.37,42.37,0,0,0,4.27-1.88,77.91,77.91,0,0,0,7.51-4.23,38.62,38.62,0,0,0,3.18-2.24,15.87,15.87,0,0,0,1.35-1.21,2,2,0,0,0,.74-1.4,2.62,2.62,0,0,0-1.56-2.44,2.79,2.79,0,0,0-2.65.18l-4.1,2.18-2.59,1.35-.68.34A.89.89,0,0,1,335,85.54Z" style="fill:#263238"></path><rect x="303.69" y="78.48" width="7.07" height="17.1" rx="1.15" style="fill:#FF8700"></rect><path d="M309.61,95.58s.16,0,.43-.15a1.08,1.08,0,0,0,.61-1c0-1.26,0-2.93-.08-5s0-4.61-.05-7.36c0-.7,0-1.41,0-2.13a1.17,1.17,0,0,0-.21-.88.91.91,0,0,0-.79-.34h-4.67a.89.89,0,0,0-.77.44.82.82,0,0,0-.12.43v.58c0,.78,0,1.55,0,2.3,0,1.51,0,3,0,4.35,0,2.76,0,5.25-.06,7.37a1,1,0,0,0,.53,1.1,3.65,3.65,0,0,0,1.25.12l2.13,0,1.35,0a1.58,1.58,0,0,1,.48.06,2.7,2.7,0,0,1-.48,0l-1.35.05-2.13,0H305a1.54,1.54,0,0,1-.74-.12,1.41,1.41,0,0,1-.76-1.4c0-2.12,0-4.61-.05-7.37,0-1.38,0-2.84,0-4.35V79.6a1.4,1.4,0,0,1,.19-.69,1.44,1.44,0,0,1,1.22-.69h4.67a1.41,1.41,0,0,1,1.18.53,1.35,1.35,0,0,1,.29.6,3.15,3.15,0,0,1,0,.6v2.13c0,2.75,0,5.24-.06,7.36s-.06,3.71-.08,5a1.22,1.22,0,0,1-.78,1.12A.75.75,0,0,1,309.61,95.58Z" style="fill:#263238"></path><path d="M309.16,82.68a1.94,1.94,0,1,1-1.94-1.94A1.93,1.93,0,0,1,309.16,82.68Z" style="fill:#fff"></path></g><g id="freepik--speech-bubble-1--inject-4"><path d="M54.78,183.47A38.12,38.12,0,1,0,99.2,145.88a38.06,38.06,0,0,1,2.59-12,28.1,28.1,0,0,0-12.72,11.63A38.13,38.13,0,0,0,54.78,183.47Z" style="fill:#fff"></path><path d="M54.78,183.47s0-.34,0-1,0-1.67.14-3a38.75,38.75,0,0,1,2.77-10.93,30.72,30.72,0,0,1,1.68-3.49l1-1.81,1.22-1.8a43.27,43.27,0,0,1,2.86-3.64c.54-.58,1.13-1.15,1.71-1.74.29-.3.58-.6.89-.89l1-.82c.67-.54,1.29-1.16,2-1.65l2.22-1.55a39.64,39.64,0,0,1,16.73-5.85l-.17.11a28.42,28.42,0,0,1,12.81-11.73.23.23,0,0,1,.31.12.19.19,0,0,1,0,.18,37.86,37.86,0,0,0-2.55,11.89l-.21-.26a42.23,42.23,0,0,1,9.93,3.09,39.43,39.43,0,0,1,9,5.94,38.26,38.26,0,0,1,12.9,32.25,39.39,39.39,0,0,1-3.31,12.45c-.48.95-.88,1.93-1.42,2.83l-1.63,2.68-1.86,2.5c-.6.84-1.36,1.54-2,2.31a38.88,38.88,0,0,1-9.4,7.34,40.87,40.87,0,0,1-10.64,4c-.9.18-1.81.29-2.71.44l-1.34.19-1.35.07c-.9,0-1.78.1-2.66.12l-2.62-.14c-.43,0-.87,0-1.29-.08l-1.27-.2c-.84-.13-1.68-.24-2.5-.39l-2.4-.62-1.19-.31-1.14-.42-2.24-.82c-.72-.32-1.41-.68-2.11-1a34.14,34.14,0,0,1-3.93-2.23,37.84,37.84,0,0,1-11.15-11.14,36.78,36.78,0,0,1-4.85-10.9l-.57-2.25c-.13-.72-.21-1.39-.31-2s-.17-1.2-.25-1.73,0-1-.08-1.44c0-.85,0-1.51-.07-2s0-.67,0-.67,0,.23.06.67.07,1.11.13,2c0,.43,0,.91.1,1.44s.18,1.1.28,1.72.19,1.29.33,2,.38,1.45.58,2.24a37.14,37.14,0,0,0,4.9,10.79,37.72,37.72,0,0,0,11.12,11,34.77,34.77,0,0,0,3.9,2.18c.69.33,1.37.68,2.09,1l2.22.81,1.12.41,1.18.3,2.38.61c.81.14,1.64.25,2.47.38l1.25.19c.42.05.85.05,1.28.08l2.59.13c.87,0,1.75-.09,2.63-.13l1.33-.06,1.33-.2c.89-.15,1.79-.26,2.68-.43a41,41,0,0,0,10.5-3.93,38.88,38.88,0,0,0,9.27-7.27c.66-.76,1.4-1.46,2-2.29l1.83-2.46,1.61-2.65c.53-.89.92-1.86,1.4-2.79a39,39,0,0,0,3.25-12.29,37.73,37.73,0,0,0-12.72-31.81,38.59,38.59,0,0,0-8.91-5.87,41.81,41.81,0,0,0-9.8-3.07.24.24,0,0,1-.2-.25,38.14,38.14,0,0,1,2.61-12l.31.3a28,28,0,0,0-12.63,11.51.2.2,0,0,1-.16.11,38.68,38.68,0,0,0-11.63,3.11,39.81,39.81,0,0,0-4.94,2.62L70.31,153c-.73.49-1.35,1.1-2,1.63l-1,.81c-.31.28-.59.59-.89.88-.58.58-1.16,1.14-1.7,1.72a40.66,40.66,0,0,0-2.85,3.59l-1.23,1.78-1,1.8a30.26,30.26,0,0,0-1.69,3.44,40.25,40.25,0,0,0-2.88,10.85c-.13,1.29-.14,2.29-.2,3S54.78,183.47,54.78,183.47Z" style="fill:#263238"></path><circle cx="105.07" cy="173.13" r="4.84" style="fill:#FF8700"></circle><path d="M111,178.54H99.17a4,4,0,0,0-3.79,3,3.87,3.87,0,0,0-.21,1.31l0,8.17A1.9,1.9,0,0,0,96.85,193a1.83,1.83,0,0,0,2-1.81L99,183.8h.61l-.1,20.28a2.36,2.36,0,0,0,2.15,2.41,2.27,2.27,0,0,0,2.4-2.27V196a2.8,2.8,0,0,1,.44-1.78.77.77,0,0,1,1.22,0,2.8,2.8,0,0,1,.44,1.78v8.18a2.33,2.33,0,0,0,1.83,2.32,2.29,2.29,0,0,0,2.73-2.25l-.11-20.4h.61l.12,7.36a1.82,1.82,0,0,0,2,1.81,1.9,1.9,0,0,0,1.63-1.91l0-7.79a5.33,5.33,0,0,0-.73-2.82A3.68,3.68,0,0,0,111,178.54Z" style="fill:#FF8700"></path><circle cx="80.3" cy="173.13" r="4.84" style="fill:#FF8700"></circle><path d="M86.2,178.54H74.4a4.06,4.06,0,0,0-3.8,3,4.13,4.13,0,0,0-.21,1.31l0,8.17A1.9,1.9,0,0,0,72.07,193a1.82,1.82,0,0,0,2-1.81l.12-7.36h.61l-.11,20.28a2.37,2.37,0,0,0,2.15,2.41,2.28,2.28,0,0,0,2.41-2.27V196a2.8,2.8,0,0,1,.44-1.78.77.77,0,0,1,1.22,0,2.8,2.8,0,0,1,.44,1.78v8.18a2.32,2.32,0,0,0,1.83,2.32,2.27,2.27,0,0,0,2.72-2.25l-.1-20.4h.61l.11,7.36a1.83,1.83,0,0,0,2,1.81,1.9,1.9,0,0,0,1.64-1.91l0-7.79a5.34,5.34,0,0,0-.74-2.82A3.67,3.67,0,0,0,86.2,178.54Z" style="fill:#FF8700"></path><path d="M98.11,159.39H87.69A2.59,2.59,0,0,0,85.1,162v4.62a2.59,2.59,0,0,0,2.59,2.59h1.6a.08.08,0,0,1,.08.08v1.82a.56.56,0,0,0,1,.37l1.91-2.24.06,0h5.78a2.59,2.59,0,0,0,2.59-2.59V162A2.59,2.59,0,0,0,98.11,159.39Z" style="fill:#e0e0e0"></path><circle cx="89.37" cy="164.12" r="1.27" style="fill:#fff"></circle><circle cx="92.9" cy="164.12" r="1.27" style="fill:#fff"></circle><circle cx="96.44" cy="164.12" r="1.27" style="fill:#fff"></circle></g><g id="freepik--Character--inject-4"><path d="M235.4,436.11l1.19,21.67s-21.63,8.49-21.8,12.51l42.1-.79-.47-33.84Z" style="fill:#263238"></path><path d="M249.57,455.71a1.73,1.73,0,0,1,1.23,1.94,1.65,1.65,0,0,1-1.91,1.23,1.8,1.8,0,0,1-1.29-2.06,1.72,1.72,0,0,1,2.13-1.06" style="fill:#e0e0e0"></path><path d="M256.89,469.5l-.18-3.41-40.3,2s-1.85.85-1.62,2.16Z" style="fill:#455a64"></path><path d="M235.9,457.58c0,.21,1,.28,2.07.92s1.58,1.5,1.76,1.41-.14-1.26-1.39-2S235.85,457.39,235.9,457.58Z" style="fill:#fff"></path><path d="M231.52,459.49c0,.2.86.53,1.57,1.39s.93,1.77,1.14,1.76.31-1.18-.6-2.23S231.52,459.29,231.52,459.49Z" style="fill:#fff"></path><path d="M229.11,464.82c.19,0,.46-1-.09-2.11s-1.52-1.54-1.6-1.37.52.76,1,1.69S228.91,464.81,229.11,464.82Z" style="fill:#fff"></path><path d="M236.18,452.61c.09.19,1-.11,2.19-.06s2.08.41,2.18.23-.78-.89-2.15-.94S236.08,452.45,236.18,452.61Z" style="fill:#fff"></path><path d="M286.37,434l2.28,26.15-4.16,21.21a2.69,2.69,0,0,0,2.3,3.19h0a2.67,2.67,0,0,0,2.31-.84c3.76-4.1,17.49-19.21,17.21-21.12-.32-2.21-.57-27.75-.57-27.75Z" style="fill:#263238"></path><path d="M286.79,484.53,306.2,460.8l.07,1.11a4.08,4.08,0,0,1-.79,2.68c-1.54,2.07-5.91,7.67-16.3,19.09a2.65,2.65,0,0,1-2.39.85Z" style="fill:#455a64"></path><g style="opacity:0.6000000000000001"><path d="M300.28,452.7a1.62,1.62,0,0,0-.31,2.15,1.58,1.58,0,0,0,2.13.32,1.72,1.72,0,0,0,.31-2.28,1.63,1.63,0,0,0-2.25-.09" style="fill:#fff"></path></g><path d="M292,472.7a8,8,0,0,0-2.42-1.89,8.22,8.22,0,0,0-3.06-.39c0-.06.29-.28.9-.41a4.23,4.23,0,0,1,2.38.26,4.16,4.16,0,0,1,1.86,1.5C292,472.29,292.11,472.67,292,472.7Z" style="fill:#fff"></path><path d="M290.4,476.33a20.3,20.3,0,0,0-2.39-1,22.93,22.93,0,0,0-2.58-.17,3,3,0,0,1,2.71-.39C289.71,475.14,290.53,476.25,290.4,476.33Z" style="fill:#fff"></path><path d="M295.23,468a27.66,27.66,0,0,0-3.59-1.76c-2.1-.69-3.93-.48-3.95-.66a6,6,0,0,1,4.12.11A6,6,0,0,1,295.23,468Z" style="fill:#fff"></path><path d="M295.2,460c-.06.16-1.55-.35-3.43-.3s-3.36.6-3.42.44a5.24,5.24,0,0,1,3.4-1A5.18,5.18,0,0,1,295.2,460Z" style="fill:#fff"></path><path d="M294.73,452.27a13.48,13.48,0,0,0-3.57-.4,13.07,13.07,0,0,0-3.42,1.09c-.05,0,.22-.4.8-.78a5.81,5.81,0,0,1,5.25-.52C294.43,451.92,294.76,452.21,294.73,452.27Z" style="fill:#fff"></path><path d="M291.11,450.4a2.43,2.43,0,0,1-.1-1,6.9,6.9,0,0,1,.62-2.64,3.14,3.14,0,0,1,1.22-1.55,1.09,1.09,0,0,1,1.23.17,1.71,1.71,0,0,1,.49,1.15,3.8,3.8,0,0,1-3.1,3.73,4.43,4.43,0,0,1-4.47-2,1.49,1.49,0,0,1-.15-1.26,1.06,1.06,0,0,1,1.07-.63,3.75,3.75,0,0,1,1.78.78,7.79,7.79,0,0,1,1.92,1.92,2.43,2.43,0,0,1,.46.88,12.5,12.5,0,0,0-2.6-2.46,3.55,3.55,0,0,0-1.58-.65.57.57,0,0,0-.58.34,1,1,0,0,0,.15.83,3.93,3.93,0,0,0,3.89,1.71,3.3,3.3,0,0,0,2.68-3.12,1.24,1.24,0,0,0-.31-.82.57.57,0,0,0-.68-.1,2.77,2.77,0,0,0-1.05,1.28A10.32,10.32,0,0,0,291.11,450.4Z" style="fill:#fff"></path><path d="M214.55,254.12a93,93,0,0,0-2,27.42c.45,5.82,20.11,167,20.11,167h26.55l-7.46-151.5,2.17.47s14.49,64.62,15.68,75.08c1.06,9.4,13.28,77.72,13.28,77.72l24.28.28-7.76-90.37-9-86.7L287,248.3Z" style="fill:#263238"></path><path d="M255.89,281.6a4.79,4.79,0,0,1-1.1.63,13.38,13.38,0,0,1-3.29,1.15,7.15,7.15,0,0,1-2.45,0,5.06,5.06,0,0,1-2.55-1.23,6.09,6.09,0,0,1-1.56-2.71c-.31-1-.49-2.11-.71-3.2-.84-4.37-1.42-8.36-1.75-11.26-.17-1.45-.28-2.62-.34-3.44a5.17,5.17,0,0,1,0-1.27,5.94,5.94,0,0,1,.25,1.25c.14.92.31,2.06.51,3.41.44,2.88,1.07,6.85,1.92,11.21.42,2.15.72,4.35,2.06,5.63a5.54,5.54,0,0,0,4.59,1.2,15.72,15.72,0,0,0,3.26-1A7,7,0,0,1,255.89,281.6Z" style="fill:#455a64"></path><path d="M247.9,261.06s.18-.14.55-.17a2.43,2.43,0,0,1,1.48.48,2.62,2.62,0,0,1,1.12,2.05,2.63,2.63,0,0,1-4.48,1.68,2.63,2.63,0,0,1-.5-2.28,2.28,2.28,0,0,1,.8-1.33c.3-.23.51-.27.52-.24a2.91,2.91,0,0,0-.93,1.65,2.32,2.32,0,0,0,.5,1.86,2.16,2.16,0,0,0,3.58-1.34,2.38,2.38,0,0,0-.85-1.74A3,3,0,0,0,247.9,261.06Z" style="fill:#455a64"></path><path d="M226.18,71.38c4.28-1,8.42,3,12.79,2.45,2.65-.34,4.76-2.31,7.17-3.46a13.44,13.44,0,0,1,12,.31c3.44,2,5.61,4.1,5.84,8.09,3.36-1.65,8.5,2.77,10.09,6.82s.87,8.09-.44,12.24a57.39,57.39,0,0,1-10.76,19.56c-.43.51-1.09,1.06-1.67.74a1.44,1.44,0,0,1-.55-1.2c-.37-3.89.36-7.8,1-11.66s1-7.87,0-11.66-3.67-7.34-7.46-8.34a12.38,12.38,0,0,0-8.39,1.24c-2.6,1.25-4.93,3-7.43,4.46a16.06,16.06,0,0,1-8.16,2.58c-2.89-.06-5.89-1.62-7-4.3s.56-6.31,3.41-6.73a5.68,5.68,0,0,1-.43-11.14Z" style="fill:#263238"></path><path d="M225.87,117.62c.46-5.33,2.31-16.23,4.09-26.07a20.65,20.65,0,0,1,22.35-16.88l1.06.11c11.41,1.8,14.87,12.81,12.75,24.16l-3.62,38.13-23.78,16.47-3.26-8.15v-14S224.92,128.66,225.87,117.62Z" style="fill:#ffbf9d"></path><path d="M235.46,131.37a26.16,26.16,0,0,0,15.09-2.57s-4.19,7.39-15.09,5.31Z" style="fill:#ff9a6c"></path><path d="M231.31,102.33a1.59,1.59,0,0,0,1.36,1.74,1.53,1.53,0,0,0,1.77-1.26,1.58,1.58,0,0,0-1.36-1.74A1.52,1.52,0,0,0,231.31,102.33Z" style="fill:#263238"></path><path d="M231.8,97.17c.17.22,1.45-.54,3.15-.37s2.85,1.14,3.05,1-.06-.47-.56-.92a4.41,4.41,0,0,0-2.42-1,4.16,4.16,0,0,0-2.54.55C231.92,96.71,231.71,97.07,231.8,97.17Z" style="fill:#263238"></path><path d="M246.27,103.85a1.59,1.59,0,0,0,1.37,1.74,1.51,1.51,0,0,0,1.76-1.26,1.58,1.58,0,0,0-1.36-1.74A1.52,1.52,0,0,0,246.27,103.85Z" style="fill:#263238"></path><path d="M248.42,99.13c.18.23,1.46-.54,3.15-.37s2.85,1.15,3.06,1-.06-.48-.57-.92a4.28,4.28,0,0,0-2.42-1,4.13,4.13,0,0,0-2.53.55C248.55,98.68,248.34,99,248.42,99.13Z" style="fill:#263238"></path><path d="M241,111.09a11.73,11.73,0,0,0-2.7-.77c-.43-.08-.83-.21-.88-.51a2.22,2.22,0,0,1,.42-1.26c.51-1,1-2.06,1.6-3.17,2.25-4.51,3.91-8.24,3.73-8.33s-2.15,3.5-4.39,8l-1.55,3.2a2.49,2.49,0,0,0-.39,1.67,1.1,1.1,0,0,0,.65.71,2.75,2.75,0,0,0,.72.17A11,11,0,0,0,241,111.09Z" style="fill:#263238"></path><path d="M249.11,90.43c.12.48,1.84.43,3.8.87s3.52,1.13,3.82.75c.14-.19-.09-.65-.7-1.16a6.57,6.57,0,0,0-2.76-1.29,6.65,6.65,0,0,0-3.05.06C249.46,89.88,249.06,90.21,249.11,90.43Z" style="fill:#263238"></path><path d="M232.9,92.33c.26.41,1.47.13,2.88.25s2.56.51,2.88.14c.14-.19,0-.59-.5-1a4.16,4.16,0,0,0-4.63-.31C233,91.75,232.79,92.13,232.9,92.33Z" style="fill:#263238"></path><path d="M264.92,106.56c.2-.07,8.67-1.35,7.68,6.17s-8.32,5-8.31,4.75S264.92,106.56,264.92,106.56Z" style="fill:#ffbf9d"></path><path d="M267,114.94s.12.11.33.24a1.31,1.31,0,0,0,1,.15,3.25,3.25,0,0,0,1.88-2.71,4.41,4.41,0,0,0-.12-1.93,1.49,1.49,0,0,0-.85-1.13.68.68,0,0,0-.82.26c-.13.19-.1.35-.14.36s-.15-.15,0-.45a.9.9,0,0,1,.36-.43,1,1,0,0,1,.75-.1,1.86,1.86,0,0,1,1.22,1.35,4.37,4.37,0,0,1,.17,2.15c-.24,1.51-1.2,2.82-2.33,3a1.39,1.39,0,0,1-1.17-.35C267,115.12,266.93,115,267,114.94Z" style="fill:#ff9a6c"></path><path d="M230.85,81.24A14.33,14.33,0,0,1,236,76.37a24.65,24.65,0,0,1,14.75-3.69,20.12,20.12,0,0,1,13.51,6.69A21.33,21.33,0,0,1,269,90.6a37.77,37.77,0,0,1-.74,13.49c-.5,1.74-1.56,2.28-2.93,3.46-.86.74-2.25,1.14-3.07.37a3,3,0,0,1-.71-1.83c-.87-6-1.69-12.36,1-17.75a17.48,17.48,0,0,0-4.72-5.29,9,9,0,0,0-6.76-1.61c-3.46.7-5.86,3.77-8.76,5.78A16,16,0,0,1,227.85,89Z" style="fill:#263238"></path><path d="M274.41,95.22c0-.08-.81-.06-2.08-.28a13.54,13.54,0,0,1-8.4-5c-.8-1-1.17-1.73-1.24-1.69a5.41,5.41,0,0,0,1,1.89,12.28,12.28,0,0,0,3.77,3.48,12.12,12.12,0,0,0,4.87,1.63A5.5,5.5,0,0,0,274.41,95.22Z" style="fill:#e0e0e0"></path><path d="M274,98.92c0-.08-.85-.24-2.16-.7a17.22,17.22,0,0,1-4.74-2.62,17,17,0,0,1-3.67-4,22.18,22.18,0,0,0-1.2-1.93,6.9,6.9,0,0,0,.91,2.11,15,15,0,0,0,8.59,6.74A6.73,6.73,0,0,0,274,98.92Z" style="fill:#e0e0e0"></path><path d="M224.55,84.84a2.47,2.47,0,0,0,.31,1.3,6,6,0,0,0,2,2.52,6.1,6.1,0,0,0,3,1.13,2.34,2.34,0,0,0,1.33-.12,9.82,9.82,0,0,0-1.29-.21,7,7,0,0,1-2.79-1.19,7.08,7.08,0,0,1-2-2.28C224.78,85.3,224.63,84.82,224.55,84.84Z" style="fill:#e0e0e0"></path><path d="M223.52,86.31a2.55,2.55,0,0,0,.31,1.25,7.11,7.11,0,0,0,4.61,4,2.41,2.41,0,0,0,1.28.11A12.1,12.1,0,0,1,226,89.69,12.26,12.26,0,0,1,223.52,86.31Z" style="fill:#e0e0e0"></path><path d="M245.67,113.58a30.12,30.12,0,0,0-4.87,1.82l-1.66.76c.63.93,1.28,2.45,2.21,2.9a3.36,3.36,0,0,0,3.31-.22,3.86,3.86,0,0,0,1.09-2.43A12.77,12.77,0,0,0,245.67,113.58Z" style="fill:#ff9a6c"></path><path d="M239.82,117.27s.14.23.41.6a2.84,2.84,0,0,0,1.52,1.06,3.56,3.56,0,0,0,2.68-.33,3.46,3.46,0,0,0,1.2-3,8.53,8.53,0,0,0-.32-2l.34.16c-1.91.76-3.58,1.4-4.77,1.83a9.78,9.78,0,0,1-1.95.62,8.91,8.91,0,0,1,1.83-.92c1.16-.52,2.8-1.22,4.7-2l.26-.11.07.28a8,8,0,0,1,.36,2.19,3.31,3.31,0,0,1-4.51,3.67,2.86,2.86,0,0,1-1.58-1.3A1.44,1.44,0,0,1,239.82,117.27Z" style="fill:#263238"></path><path d="M326.87,263.83a2.92,2.92,0,0,1-.42,2.06c-1.44,2.27-5,8-5.13,9.31-.18,1.71-.36,5.56,0,6.28s3.95,1.26,3.95,1.26-.45,2.87.9,4,7.26-1.25,7.26-1.25a40.69,40.69,0,0,0,5.12-1.08s3.49.45,4-2.6-1.61-13.1-1.7-15.61-1.88-8.7-1.88-8.7l-12.79,2.21Z" style="fill:#ffbf9d"></path><path d="M329.8,277c.08.14-1.33,1-2.61,2.49s-1.92,3-2.06,2.95A7.71,7.71,0,0,1,329.8,277Z" style="fill:#ff9a6c"></path><path d="M328.41,279.12c0-.05.39-.07,1,.11a5.52,5.52,0,0,1,2.29,1.29l1.54,1.43-1.83-1a1.71,1.71,0,0,0-2.52,1.14l-.32,1.5-.17-1.51a3,3,0,0,0-.42-1.34,1.32,1.32,0,0,0-.83-.6,1.55,1.55,0,0,0-1,.14s0-.12.19-.25a1.11,1.11,0,0,1,.82-.19,1.58,1.58,0,0,1,1.13.66,3.39,3.39,0,0,1,.56,1.51h-.49a2.24,2.24,0,0,1,1.13-1.54,2.18,2.18,0,0,1,2.12.07l-.29.38A9.17,9.17,0,0,0,328.41,279.12Z" style="fill:#ff9a6c"></path><path d="M339.64,280.53c.07,0,.17.24.26.67a4.14,4.14,0,0,1,0,1.74,2.46,2.46,0,0,1-1,1.51c-.4.26-.71.25-.72.19s.22-.19.49-.48a2.87,2.87,0,0,0,.69-1.33C339.64,281.64,339.46,280.54,339.64,280.53Z" style="fill:#ff9a6c"></path><path d="M154.2,133.67a31,31,0,0,0,4.83,9.52l3.64,2.55.47,7.74L177,147.56l-.4-7.7-.88-10.33-9-7.74Z" style="fill:#ffbf9d"></path><path d="M194.15,111.45l-6.53,15.48-3.88-.78-23.39,22-7.94-13.09s14.23-7.41,16.57-12.84-.12-5.16-.12-5.16l5.56-9.6Z" style="fill:#263238"></path><path d="M183.61,91.84s-7.8-1.82-20.55-9.76A112.88,112.88,0,0,1,143,65.75a4.24,4.24,0,0,0-5.89-.21c-2.58,2.39-6,8.24-9.3,22.81-5.81,25.7-.42,30.24,1.71,29.74s16.06-5.87,25.36-6.76,23.66,1.1,23.66,1.1Z" style="fill:#e0e0e0"></path><path d="M183.61,91.84s0,.11-.07.34l-.24,1c-.22.94-.53,2.29-.94,4-.86,3.56-2.1,8.73-3.66,15.23l0,.14-.15,0c-4.08-.51-8.74-1-13.88-1.19-2.57-.1-5.26-.14-8,0a50.54,50.54,0,0,0-8.54,1.34c-5.83,1.33-11.83,3.42-18.17,5.5l-.31.08-.37,0a2.7,2.7,0,0,1-.7-.12c-.21-.11-.42-.21-.61-.33l-.51-.44a6.91,6.91,0,0,1-1.33-2.26,17.63,17.63,0,0,1-1-5.09,53.48,53.48,0,0,1,.46-10.55l.33-2.35c.11-.78.26-1.55.39-2.32.26-1.55.57-3.07.9-4.58.61-3,1.35-6,2.15-8.85a72.83,72.83,0,0,1,2.85-8.33,25.33,25.33,0,0,1,4.32-7.28,5,5,0,0,1,1.69-1.28,4.25,4.25,0,0,1,2.08-.36,4.42,4.42,0,0,1,2,.61,7,7,0,0,1,1.52,1.32c1.82,1.84,3.66,3.57,5.47,5.18a112.63,112.63,0,0,0,10.62,8.39,109.88,109.88,0,0,0,17.07,9.58c2.12.93,3.81,1.56,5,2l1.32.44.45.14a1.83,1.83,0,0,1-.47-.09c-.3-.08-.75-.2-1.33-.39-1.17-.36-2.87-1-5-1.86A105.06,105.06,0,0,1,159.6,80a111.24,111.24,0,0,1-10.69-8.36c-1.83-1.62-3.68-3.35-5.51-5.19A6.88,6.88,0,0,0,142,65.24a4.16,4.16,0,0,0-1.79-.55,4.08,4.08,0,0,0-3.39,1.51,25,25,0,0,0-4.2,7.14,71.25,71.25,0,0,0-2.81,8.28c-.81,2.86-1.54,5.81-2.15,8.82-.32,1.51-.63,3-.88,4.56-.13.77-.28,1.54-.4,2.31s-.21,1.56-.32,2.34a52.51,52.51,0,0,0-.46,10.44,17,17,0,0,0,1,5,6.35,6.35,0,0,0,1.21,2.08l.44.38c.16.1.33.18.49.27a1.63,1.63,0,0,0,1.07,0c6.29-2,12.35-4.15,18.21-5.47a51,51,0,0,1,8.62-1.32c2.8-.15,5.5-.1,8.08,0,5.15.24,9.81.73,13.91,1.27l-.19.13c1.63-6.44,2.92-11.56,3.81-15.09.45-1.75.79-3.1,1-4l.28-1.05A2.24,2.24,0,0,1,183.61,91.84Z" style="fill:#263238"></path><polygon points="204.8 112.21 199.77 111.72 202.29 105.03 206.6 107.02 204.8 112.21" style="fill:#FF8700"></polygon><path d="M202.92,104.33l-2,5.22-1.07,2.84a7.84,7.84,0,0,1-9.71,4.71l-20.55-4.4,6.88-25.8,20.91,6.4A9.06,9.06,0,0,1,202.92,104.33Z" style="fill:#FF8700"></path><g style="opacity:0.30000000000000004"><path d="M129.56,89.62c-3,13.7-3,25.34.09,26s8-9.89,11-23.58,3-25.34-.1-26S132.56,75.93,129.56,89.62Z"></path></g><path d="M142.1,84s-7.4-2.67-9.11,6.92,5.48,9.59,5.48,9.59A60.36,60.36,0,0,0,142.1,84Z" style="fill:#fff"></path><path d="M181.09,96.55A66.67,66.67,0,0,0,189,99a71.06,71.06,0,0,0,8.05,1.94,69,69,0,0,0-7.91-2.43A71.06,71.06,0,0,0,181.09,96.55Z" style="fill:#263238"></path><path d="M180.34,99.39a67.24,67.24,0,0,0,7.92,2.43,70.5,70.5,0,0,0,8.05,1.94,70.39,70.39,0,0,0-7.92-2.43A70.5,70.5,0,0,0,180.34,99.39Z" style="fill:#263238"></path><path d="M179.59,102.23a68,68,0,0,0,7.92,2.43,70.5,70.5,0,0,0,8.05,1.94,68.46,68.46,0,0,0-7.92-2.42A69.41,69.41,0,0,0,179.59,102.23Z" style="fill:#263238"></path><path d="M178.84,105.07a68,68,0,0,0,7.92,2.43,71.06,71.06,0,0,0,8.05,1.94,68.46,68.46,0,0,0-7.92-2.42A68.88,68.88,0,0,0,178.84,105.07Z" style="fill:#263238"></path><path d="M171.87,128.83l-2.79-6.26a3,3,0,0,0-4.32-1.44,2.27,2.27,0,0,0-1.09,2.22s-4.54-1.18-3.79,3.08c0,0-3.31-.14-3,2.9,0,0-4.05-.67-3.52,3.26s5.58,5.7,6.88,5.15c0,0,1.39-.46.66-2.66,0,0,3.57,4.26,5.59,3.23s.11-2.92.11-2.92,1.39,1.23,2.6.62-.54-4.94-.54-4.94a3.56,3.56,0,0,0,2.44.09C172.16,130.67,171.87,128.83,171.87,128.83Z" style="fill:#ffbf9d"></path><path d="M160.89,135.08c-.13.07-.92-1.26-2.16-2.72a9.87,9.87,0,0,1-2-2.88,15.25,15.25,0,0,1,2.42,2.55A7.13,7.13,0,0,1,160.89,135.08Z" style="fill:#ff9a6c"></path><path d="M160.07,126.26a20.78,20.78,0,0,1,3.85,4.36,19.78,19.78,0,0,1,2.9,5c-.13.07-1.46-2.16-3.32-4.74S160,126.36,160.07,126.26Z" style="fill:#ff9a6c"></path><path d="M168.94,131.54a36.56,36.56,0,0,0-2.14-4.41,36.3,36.3,0,0,0-3.15-3.76,9.21,9.21,0,0,1,3.58,3.48A9.09,9.09,0,0,1,168.94,131.54Z" style="fill:#ff9a6c"></path><path d="M182.56,128.8,180.77,127a2.56,2.56,0,0,0-2.29-.7,26.5,26.5,0,0,0-6.38,2.13c-.94.8-.29,2.74,3.25,2.6s.36,0,.36,0-7.54,3.4-5.27,10.1l5.84-.45s6.35-8,6.79-9.44A2.66,2.66,0,0,0,182.56,128.8Z" style="fill:#ffbf9d"></path><path d="M177.1,130.68c0,.08-.79.23-1.93.81a9,9,0,0,0-3.64,3.28,9.11,9.11,0,0,0-1.33,4.72c0,1.28.22,2.06.14,2.09a4.36,4.36,0,0,1-.5-2.08,8.51,8.51,0,0,1,1.24-5,8.65,8.65,0,0,1,3.93-3.34A4.28,4.28,0,0,1,177.1,130.68Z" style="fill:#ff9a6c"></path><path d="M111.69,103.12c0,.14-6.45,2.9-14.51,6.18S82.52,115.13,82.47,115s6.44-2.9,14.51-6.17S111.63,103,111.69,103.12Z" style="fill:#263238"></path><path d="M113.54,87.62c0,.15-10.66-.75-23.78-2S66,83.25,66,83.11s10.66.75,23.79,2S113.56,87.48,113.54,87.62Z" style="fill:#263238"></path><path d="M115.06,71.74c-.09.11-4-3-8.66-6.86S98,57.74,98.07,57.63s4,2.95,8.66,6.85S115.15,71.63,115.06,71.74Z" style="fill:#263238"></path><path d="M142,67.43a2.05,2.05,0,0,1,.09.48c.05.39.11.85.18,1.41s.16,1.36.21,2.23.14,1.86.15,3a72.6,72.6,0,0,1-.19,7.72,80.58,80.58,0,0,1-1.34,9.37,79.57,79.57,0,0,1-2.51,9.12,73.06,73.06,0,0,1-2.91,7.16c-.45,1-.93,1.88-1.32,2.66s-.77,1.43-1.08,2l-.73,1.22c-.17.27-.26.41-.28.4a2,2,0,0,1,.19-.46c.18-.34.39-.75.64-1.26s.63-1.2,1-2,.82-1.67,1.24-2.68c.91-2,1.86-4.42,2.79-7.16a84.65,84.65,0,0,0,2.46-9.08,86.51,86.51,0,0,0,1.37-9.3c.24-2.88.33-5.48.3-7.67,0-1.1-.05-2.09-.07-3s-.07-1.61-.12-2.22-.06-1-.08-1.41A1.73,1.73,0,0,1,142,67.43Z" style="fill:#263238"></path><path d="M179.73,145.83l1,21.2.69,3.29,19.5-10.17s4.78-8.67,7.22-12.83,5.05-5.36,5.05-5.36l-6.46,45.18s-19.84,8.39-25,9.68-16.61,5.87-17.9-7-5-35.23-5-35.23Z" style="fill:#263238"></path><path d="M177.1,188c-.07-.07.72-.86,1.71-2.32a18.79,18.79,0,0,0,3-13.14c-.26-1.75-.63-2.8-.54-2.83s.15.24.33.71a12.29,12.29,0,0,1,.57,2.06,15.9,15.9,0,0,1,.31,3.15,17.72,17.72,0,0,1-1.71,7.54,16.52,16.52,0,0,1-1.64,2.72,12.25,12.25,0,0,1-1.41,1.61A2.7,2.7,0,0,1,177.1,188Z" style="fill:#455a64"></path><path d="M264.41,191.83c.11-2.74,4.33-22.33,4.33-22.68S264.57,140,264.57,140l-.93-9-20.23,12.13s-8.61-6.47-8.4-6.81l-4.75,28.54-9.64,89.2s3.3,4,15.93,5.87c15.73,2.3,38.46-5.87,38.46-5.87S264.29,194.56,264.41,191.83Z" style="fill:#e0e0e0"></path><g style="opacity:0.30000000000000004"><path d="M217.54,285.31s3,2.25,4.79-11.27,7.18-70.25,7.18-70.25l3.88-58.72-11.58,34.19Z"></path></g><g style="opacity:0.30000000000000004"><path d="M262.62,241.26s5.31,51.91,7.33,50.9,21.43-8.66,21.43-8.66l-2-16.78Z"></path></g><path d="M264.22,131.83c.7.55,8.72,8.3,8.72,8.3s18.33,2.05,18.85,2.59-1.07,77.15-1.07,77.15l12,55.12-31.51,12.95s-6.4-32.32-9.4-49.79-2.11-22.42-1.75-39.34,4-58.68,4-58.68Z" style="fill:#263238"></path><path d="M261.84,216a7.16,7.16,0,0,1,.07-.82c.07-.53.15-1.33.31-2.34.32-2,.83-5,1.54-8.57,1.41-7.21,3.55-17.12,6-28.05,2-8.76,3.89-16.84,5.44-23.31l.07.21-3.72-3.18-.16-.13.15-.14,3.77-3.55,0,.16c-.76-1.91-1.35-3.43-1.78-4.52-.19-.49-.34-.88-.45-1.19a1.49,1.49,0,0,1-.13-.42,1.59,1.59,0,0,1,.2.39c.13.3.3.69.52,1.17q.69,1.62,1.9,4.46l0,.09-.07.06-3.71,3.62v-.28l3.76,3.14.1.08,0,.13c-1.49,6.5-3.34,14.58-5.34,23.33-2.48,10.92-4.67,20.82-6.17,28-.75,3.59-1.32,6.5-1.7,8.52-.19,1-.3,1.8-.4,2.33A4.18,4.18,0,0,1,261.84,216Z" style="fill:#455a64"></path><path d="M290.72,142.43S298,144,301.58,152.52c1.59,3.74,20.05,43.64,23.9,51.59S342,257,342,257l-21.55,3.71-11.9-45.56-19.71-35.71,1.9-17.77Z" style="fill:#263238"></path><path d="M294.05,159.59c.14,0-.36,6.63-1.11,14.79s-1.49,14.76-1.64,14.74.36-6.63,1.12-14.79S293.91,159.57,294.05,159.59Z" style="fill:#455a64"></path><polygon points="321.64 260.52 322.19 263.04 341.7 259.57 341.14 257.16 321.64 260.52" style="fill:#e0e0e0"></polygon><path d="M302.75,275a2.65,2.65,0,0,1-.59.29l-1.74.77-6.55,2.76-22.54,9.36-.28.12L271,288c-.68-3.64-1.4-7.54-2.14-11.56-2.27-12.43-4.32-23.69-5.81-31.88-.72-4-1.3-7.35-1.71-9.68-.18-1.11-.33-2-.43-2.63,0-.28-.08-.5-.1-.69a.87.87,0,0,1,0-.24,1,1,0,0,1,.07.23l.15.68c.13.64.31,1.51.53,2.62.45,2.32,1.09,5.6,1.87,9.64,1.53,8.19,3.63,19.43,6,31.86.74,4,1.45,7.92,2.12,11.56l-.34-.18,22.61-9.19,6.6-2.63,1.78-.69A4.66,4.66,0,0,1,302.75,275Z" style="fill:#455a64"></path><polygon points="238.38 150.69 240.9 154.4 244.68 154.4 246.69 150.69 244.47 145.99 241.48 146.15 238.38 150.69" style="fill:#FF8700"></polygon><path d="M263,143.13a4.73,4.73,0,0,1-.89.68l-2.53,1.69c-2.15,1.4-5.14,3.31-8.46,5.39l-3.11,2-.22.13-.13-.21a42.63,42.63,0,0,1-3.26-6.82c-.35-.87-.61-1.57-.78-2.05a2.51,2.51,0,0,1-.23-.76,20.49,20.49,0,0,1,1.3,2.69,54.74,54.74,0,0,0,3.39,6.67l-.34-.08,3.11-2c3.31-2.08,6.33-3.94,8.53-5.26l2.62-1.55A4.61,4.61,0,0,1,263,143.13Z" style="fill:#455a64"></path><path d="M234.06,146.91a7.11,7.11,0,0,1,1.1,1.32c.64.87,1.53,2.1,2.53,3.53h-.4c.41-.57.84-1.19,1.27-1.85,1.28-1.9,2.42-3.64,3.3-4.87a9.49,9.49,0,0,1,1.55-1.9,14.44,14.44,0,0,1-1.24,2.11c-.8,1.27-1.89,3-3.17,4.95-.44.66-.88,1.29-1.31,1.86l-.21.28-.2-.29c-1-1.45-1.81-2.72-2.38-3.63A6.45,6.45,0,0,1,234.06,146.91Z" style="fill:#455a64"></path><polygon points="240.9 154.4 229.51 240.39 236.76 255.41 248.99 239.58 244.68 154.4 240.9 154.4" style="fill:#FF8700"></polygon><path d="M214.21,283.67a3.21,3.21,0,0,0,4.79-2.52l6.26-64.23,9.45-79.36-3.33,2.83s-17.76,1.28-18.19,1.57-4,11.17-5.56,24.63-.37,55.32-.37,55.32l-6.69,52.71Z" style="fill:#263238"></path><path d="M206.54,155a6.32,6.32,0,0,1,.11,1.4c0,1,.07,2.28.12,3.81.07,3.22.13,7.67.17,12.58s.05,9.36,0,12.58c0,1.53,0,2.81-.05,3.81a6.53,6.53,0,0,1-.09,1.4,7.15,7.15,0,0,1-.11-1.39c0-1-.07-2.28-.11-3.82-.08-3.22-.14-7.67-.18-12.58s0-9.36,0-12.58c0-1.54,0-2.82,0-3.82A8.54,8.54,0,0,1,206.54,155Z" style="fill:#455a64"></path><path d="M223.58,218.51a6.53,6.53,0,0,1,0-.87c0-.57.06-1.4.07-2.48,0-2.16.06-5.28,0-9.13,0-7.71-.22-18.36-.49-30.12-.19-8-.38-15.53-.53-21.89v-.14l.12-.06,4.31-2.32-.07.29c-1.07-1.56-2-3-2.92-4.28l-.09-.12.11-.1,5.68-5.38,1.54-1.42a4.43,4.43,0,0,1,.55-.47,3.23,3.23,0,0,1-.48.54l-1.48,1.49-5.57,5.49,0-.22,3,4.24.13.18-.2.11L223,154.21l.11-.2c.22,6.34.43,13.85.61,21.89.27,11.76.4,22.42.34,30.13,0,3.86-.1,7-.2,9.13,0,1.08-.13,1.92-.17,2.48A4.33,4.33,0,0,1,223.58,218.51Z" style="fill:#455a64"></path><path d="M221.56,255.09a1.83,1.83,0,0,1,0,.49c0,.37-.08.83-.14,1.38-.15,1.28-.35,3-.59,5.08-.52,4.29-1.28,10.2-2.15,16.73-.31,2.3-.61,4.52-.88,6.58l0,.36-.32-.18-10.76-6.07-3.09-1.8a6.77,6.77,0,0,1-1.09-.7,7.55,7.55,0,0,1,1.17.55l3.17,1.68,10.84,5.91-.37.18c.27-2.06.56-4.28.87-6.58.86-6.53,1.68-12.43,2.3-16.71.31-2.07.56-3.78.75-5.05.09-.55.17-1,.23-1.38A1.6,1.6,0,0,1,221.56,255.09Z" style="fill:#455a64"></path><polygon points="160.07 154.04 160.3 150.25 177.61 144.1 178.57 146.31 160.07 154.04" style="fill:#e0e0e0"></polygon><path d="M220.62,141.16s5.19,74.1,75.4,88.63l.67,17.43s-46.4-.78-72.82-42.32c-19.9-31.28-13.14-62.63-13.14-62.63A18.46,18.46,0,0,1,220.62,141.16Z" style="fill:#455a64"></path><path d="M219,174.85l-.67-3.75-1.87-.44-.25-1.43,8.1,2,.24,1.37-6.9,4.72-.26-1.45Zm1-.66,3-2-3.53-.83Z" style="fill:#fff"></path><path d="M220.32,185.6,225.1,184l-4.75-1-.2-.6,3.1-3.68-4.72,1.58L218.1,179l7.21-2.43.37,1.11-3.82,4.47,5.73,1.21.37,1.1-7.21,2.43Z" style="fill:#fff"></path><path d="M226.75,194.46c-1.17.59-2.31,0-3.19-1.74l-1.7-3.38,6.81-3.42,1.6,3.19c.82,1.64.57,2.86-.51,3.4a1.84,1.84,0,0,1-1.94-.12A1.86,1.86,0,0,1,226.75,194.46Zm-.52-1.34c.68-.34.73-1,.25-2l-1-2-2,1,1,2C225,193.1,225.55,193.47,226.23,193.12Zm2.08-5.44-1.88.95.9,1.79c.44.87,1,1.21,1.63.9s.69-1,.25-1.85Z" style="fill:#fff"></path><path d="M230.16,200.32l-2.1-3.18-1.88.34-.8-1.21,8.24-1.34.77,1.17-4.47,7.06-.81-1.24Zm.67-1,2-3-3.57.65Z" style="fill:#fff"></path><path d="M231.06,203.23l1.16-.31a4.16,4.16,0,0,0,.94,2.47c.75.92,1.39,1,1.83.68,1.27-1-2.42-3.86-.23-5.65,1-.78,2.38-.68,3.7.94a4.78,4.78,0,0,1,1.08,2.39l-1.13.35a4.24,4.24,0,0,0-.87-2c-.74-.91-1.4-1-1.84-.62-1.26,1,2.42,3.85.25,5.62-.94.77-2.38.67-3.7-1A4.86,4.86,0,0,1,231.06,203.23Z" style="fill:#fff"></path><path d="M235.64,208.77l1.13-.42a4.28,4.28,0,0,0,1.15,2.39c.83.85,1.48.91,1.89.52,1.17-1.15-2.75-3.64-.72-5.61.88-.86,2.31-.89,3.76.61a4.82,4.82,0,0,1,1.29,2.29L243,209a4.2,4.2,0,0,0-1-1.92c-.81-.84-1.48-.86-1.89-.46-1.16,1.13,2.74,3.63.74,5.58-.88.85-2.31.86-3.77-.63A4.9,4.9,0,0,1,235.64,208.77Z" style="fill:#fff"></path><path d="M245.51,216.82l-2.88-2.49-1.72.84-1.11-.95,7.58-3.52,1.05.91-2.38,8-1.12-1Zm.37-1.15,1.09-3.46-3.25,1.59Z" style="fill:#fff"></path><path d="M251.6,214.25l2.7,1.95c2,1.44,2.48,3.66,1.15,5.52s-3.59,2.1-5.6.66l-2.7-1.94Zm-1.1,7.12a2.62,2.62,0,1,0,3.05-4.24l-1.5-1.08L249,220.29Z" style="fill:#fff"></path><path d="M256.3,222.27a4.11,4.11,0,1,1,1.5,5.47A3.89,3.89,0,0,1,256.3,222.27Zm5.81,3.49a2.68,2.68,0,1,0-3.67.92A2.59,2.59,0,0,0,262.11,225.76Z" style="fill:#fff"></path><path d="M267.42,232.87l-.37-2.7a2.06,2.06,0,0,1-.26-.12l-1.53-.78-1,2L263,230.6l3.46-6.78,2.79,1.43c1.78.91,2.42,2.38,1.66,3.88a2.43,2.43,0,0,1-2.54,1.4l.42,3Zm1.22-6.59-1.47-.75-1.38,2.7,1.47.75c1.1.57,1.93.36,2.37-.5S269.74,226.85,268.64,226.28Z" style="fill:#fff"></path><rect x="267.64" y="173.09" width="14.86" height="9.97" style="fill:#FF8700"></rect><rect x="267.64" y="177.94" width="14.93" height="5.11" style="fill:#fff"></rect><path d="M282.5,183.05a4.71,4.71,0,0,1-.05-.75c0-.54,0-1.21-.06-2,0-1.81-.07-4.25-.12-7.19l.23.22-14.86.06c-.07.06.53-.54.28-.28h0v2.6c0,.87,0,1.72,0,2.55,0,1.67,0,3.27,0,4.79l-.26-.26c4.32,0,8,.08,10.63.13l3.08.07a9.41,9.41,0,0,1,1.15.06,6.33,6.33,0,0,1-1,.06l-3,.07c-2.61,0-6.37.11-10.8.13h-.26v-.26c0-1.52,0-3.12,0-4.79,0-.83,0-1.68,0-2.55v-2.6h0l.29-.29,14.86.06h.23v.23c0,3.08-.08,5.6-.12,7.33,0,.79,0,1.45-.06,2A3,3,0,0,1,282.5,183.05Z" style="fill:#455a64"></path></g></svg>
